<svg height="512pt" viewBox="0 0 512 512" width="512pt" xmlns="http://www.w3.org/2000/svg"><path d="M512 416c0-11.219-4.367-21.766-12.3-29.7L300.132 186.735 332.3 154.57c4.844 2.575 10.273 3.942 15.914 3.942 9.082 0 17.62-3.54 24.043-9.961 6.422-6.422 9.957-14.957 9.957-24.04s-3.535-17.62-9.957-24.042L281.746 9.96C275.324 3.535 266.786 0 257.703 0c-9.078 0-17.617 3.535-24.039 9.957-6.422 6.422-9.96 14.961-9.96 24.043 0 5.64 1.366 11.074 3.94 15.918L103.907 173.656c-12.84-6.789-29.148-4.789-39.949 6.008-13.254 13.258-13.254 34.828 0 48.082l90.512 90.512c6.629 6.629 15.336 9.941 24.043 9.941s17.41-3.312 24.039-9.941c10.797-10.797 12.797-27.106 6.008-39.95l32.175-32.175 35.114 35.113c.004 0 .004.004.007.008l.004.004 164.442 164.441C448.234 453.633 458.78 458 470 458s21.766-4.367 29.7-12.3c7.933-7.934 12.3-18.481 12.3-29.7zM247.809 24.102A13.893 13.893 0 01257.703 20a13.91 13.91 0 019.902 4.102l90.508 90.507a13.91 13.91 0 014.102 9.903c0 3.738-1.457 7.254-4.102 9.898a13.908 13.908 0 01-9.898 4.102 13.908 13.908 0 01-9.899-4.102L247.81 43.898c-2.649-2.644-4.106-6.16-4.106-9.898s1.457-7.254 4.106-9.898zm-7.075 41.011l76.368 76.367-38.176 38.18c-.004 0-.004 0-.008.004l-45.254 45.254c0 .004-.004.004-.004.008l-38.18 38.176-76.367-76.368zm-52.324 239c-5.457 5.461-14.34 5.461-19.8 0l-90.508-90.508c-5.461-5.457-5.461-14.34 0-19.796 2.726-2.73 6.312-4.094 9.898-4.094s7.172 1.363 9.898 4.094l90.508 90.507c.004 0 .004 0 .004.004 5.457 5.457 5.457 14.336 0 19.793zm97.582-103.234l28.047 28.047-31.113 31.11-28.047-28.048zm199.563 230.676C481.398 435.71 475.875 438 470 438s-11.398-2.29-15.555-6.445L297.066 274.18l31.114-31.114 157.375 157.38C489.71 404.597 492 410.124 492 416s-2.29 11.402-6.445 15.555zm0 0"/><path d="M350.668 404H336v-19.668C336 364.301 319.7 348 299.668 348H80.332C60.301 348 44 364.3 44 384.332V404H29.332C13.16 404 0 417.16 0 433.332V502c0 5.523 4.477 10 10 10h360c5.523 0 10-4.477 10-10v-68.668C380 417.16 366.84 404 350.668 404zM360 492H20v-58.668c0-5.144 4.188-9.332 9.332-9.332H145c5.523 0 10-4.477 10-10s-4.477-10-10-10H64v-19.668C64 375.328 71.328 368 80.332 368h219.336c9.004 0 16.332 7.328 16.332 16.332V404h-80.996c-5.524 0-10 4.477-10 10s4.476 10 10 10h115.664c5.144 0 9.332 4.188 9.332 9.332zm0 0"/><path d="M190 404a10.08 10.08 0 00-7.07 2.93c-1.86 1.86-2.93 4.441-2.93 7.07s1.07 5.21 2.93 7.07c1.86 1.86 4.441 2.93 7.07 2.93s5.21-1.07 7.07-2.93A10.08 10.08 0 00200 414c0-2.64-1.07-5.21-2.93-7.07A10.08 10.08 0 00190 404zm0 0"/></svg>