<svg version="1.1" id="Capa_1" xmlns="http://www.w3.org/2000/svg" x="0" y="0" viewBox="0 0 512 512" xml:space="preserve"><path d="M506.022 207.835l-75.569-63.746V51.915c0-5.523-4.477-10-10-10h-60.719c-5.523 0-10 4.477-10 10V76L262.447 2.367a10 10 0 00-12.896 0L5.978 207.835c-5.442 4.59-7.379 11.877-4.936 18.562 2.444 6.687 8.623 11.008 15.741 11.008h37.224v214.524H30.009c-5.523 0-10 4.478-10 10v40.061c0 5.522 4.477 10 10 10h318.233c5.523 0 10-4.478 10-10s-4.477-10-10-10H40.008v-20.062H471.99v20.062h-44.498c-5.523 0-10 4.478-10 10s4.477 10 10 10h54.498c5.523 0 10-4.478 10-10v-40.061c0-5.522-4.477-10-10-10h-23.999V237.405h37.224c7.119 0 13.297-4.321 15.741-11.008 2.446-6.686.508-13.972-4.934-18.562zM369.736 61.915h40.719v65.304L369.736 92.87V61.915zm68.256 390.015H114.005v-62.435c0-5.522-4.477-10-10-10s-10 4.478-10 10v62.435H74.007V237.405h5.211c2.36 0 4.644-.834 6.448-2.356L255.999 91.363l170.334 143.685a9.999 9.999 0 006.448 2.356h5.211V451.93zm-1.557-234.524L262.447 70.638a10 10 0 00-12.896 0L75.565 217.406H25.648L255.999 23.092l230.352 194.314h-49.916z"/><path d="M297.327 219.923c-4.809-2.716-10.909-1.018-13.623 3.792L191 387.926c-2.715 4.81-1.018 10.909 3.792 13.623a9.996 9.996 0 0013.624-3.792l92.703-164.211c2.714-4.809 1.016-10.908-3.792-13.623zm18.916 106.297c-23.158 0-41.998 18.84-41.998 41.998 0 23.158 18.84 41.998 41.998 41.998s41.998-18.84 41.998-41.998c0-23.158-18.84-41.998-41.998-41.998zm0 63.997c-12.13 0-21.999-9.869-21.999-21.999s9.869-21.999 21.999-21.999 21.999 9.869 21.999 21.999-9.869 21.999-21.999 21.999zM195.757 193.336c-23.158 0-41.998 18.84-41.998 41.998 0 23.158 18.84 41.998 41.998 41.998 23.158 0 41.998-18.84 41.998-41.998 0-23.158-18.84-41.998-41.998-41.998zm0 63.997c-12.13 0-21.999-9.87-21.999-21.999 0-12.13 9.869-21.999 21.999-21.999s21.999 9.869 21.999 21.999c0 12.13-9.869 21.999-21.999 21.999zM397.064 494.92c-1.86-1.86-4.44-2.93-7.07-2.93s-5.21 1.069-7.07 2.93a10.076 10.076 0 00-2.93 7.07c0 2.63 1.07 5.21 2.93 7.069 1.86 1.86 4.44 2.931 7.07 2.931s5.21-1.07 7.07-2.931a10.072 10.072 0 002.93-7.069 10.084 10.084 0 00-2.93-7.07zM111.075 347.926c-1.86-1.86-4.44-2.93-7.07-2.93s-5.21 1.069-7.07 2.93a10.076 10.076 0 00-2.93 7.07c0 2.63 1.07 5.21 2.93 7.069 1.86 1.86 4.44 2.931 7.07 2.931s5.21-1.07 7.07-2.931a10.072 10.072 0 002.93-7.069c0-2.63-1.07-5.21-2.93-7.07z"/></svg>