<svg id="Layer_1" height="512" viewBox="0 0 512.002 512.002" width="512" xmlns="http://www.w3.org/2000/svg"><path d="M463.072 102.929l-100-100A10.003 10.003 0 00356.001 0H116.002C99.46 0 86.003 13.458 86.003 30v10.001H76.001c-16.542 0-30 13.458-30 30v412.001c0 16.542 13.458 30 30 30H396c16.542 0 30-13.458 30-30V472h10.002c16.542 0 29.999-13.458 29.999-30V110c0-2.652-1.054-5.195-2.929-7.071zm-97.071-68.786L431.858 100h-55.857c-5.514 0-10-4.486-10-10zm80 407.857c0 5.514-4.485 10-9.999 10h-320c-5.514 0-9.999-4.486-9.999-10V200.001c0-5.522-4.478-10-10-10s-10 4.478-10 10V442c0 16.542 13.457 30 29.999 30H406v10.002c0 5.514-4.486 10-10 10H76.001c-5.514 0-10-4.486-10-10V70.001c0-5.514 4.486-10 10-10h10.002v50c0 5.522 4.478 10 10 10s10-4.478 10-10V30c0-5.514 4.485-10 9.999-10h229.999v70c0 16.542 13.458 30 30 30h70z"/><path d="M315.998 100H156.005c-5.522 0-10 4.478-10 10s4.478 10 10 10h159.993c5.522 0 10-4.478 10-10s-4.477-10-10-10zm0 97.333H156.005c-5.522 0-10 4.478-10 10s4.478 10 10 10h159.993c5.522 0 10-4.478 10-10s-4.477-10-10-10zm-159.993 68.666h79.996c5.522 0 10-4.478 10-10s-4.478-10-10-10h-79.996c-5.522 0-10 4.478-10 10s4.477 10 10 10zm0 48.666h79.996c5.522 0 10-4.478 10-10s-4.478-10-10-10h-79.996c-5.522 0-10 4.478-10 10s4.477 10 10 10zm138.003 28.666H156.005c-5.522 0-10 4.478-10 10s4.478 10 10 10h138.003c5.522 0 10-4.478 10-10s-4.478-10-10-10zm-8.719 48.667H156.005c-5.522 0-10 4.478-10 10s4.478 10 10 10h129.284c5.522 0 10-4.478 10-10s-4.477-10-10-10zM156.005 71.334h79.996c5.522 0 10-4.478 10-10s-4.478-10-10-10h-79.996c-5.522 0-10 4.478-10 10s4.477 10 10 10zM96.003 145c-5.522 0-10 4.481-10 10.004s4.478 10 10 10 10-4.478 10-10v-.008c0-5.522-4.478-9.996-10-9.996z"/></svg>