<svg id="Capa_1" height="512" viewBox="0 0 512.002 512.002" width="512" xmlns="http://www.w3.org/2000/svg"><g id="XMLID_1157_"><g id="XMLID_1372_"><path id="XMLID_420_" d="M275.402 512.002a9.966 9.966 0 01-5.869-1.907l-55.119-40a9.998 9.998 0 01-1.843-14.454l37.165-45.077-23.704-47.188-15.982-1.598a10 10 0 01-9.005-9.95v-57.427l-21.703-12.153a10.004 10.004 0 01-4.571-5.474l-10.146-29.515-36.972-11.376a10.002 10.002 0 01-5.687-4.5l-13.768-23.486-30.502 13.133a10 10 0 01-9.727-1.019l-54.898-38.795a10.002 10.002 0 01-4.228-8.167v-39.331a10 10 0 017.984-9.795l40.658-8.368V58.988c0-5.523 4.478-10 10-10h30.569c1.484 0 2.95.331 4.291.967l8.748 4.156 16.65-12.898V25.02c0-4.347 2.808-8.195 6.947-9.523L181.53.479a9.995 9.995 0 0111.763 4.609l7.866 13.945a9.994 9.994 0 011.29 4.913v26.607l.808.808 41.609-16.674a10 10 0 013.72-.718h22.598l13.445-17.538a10 10 0 0116.698 1.264l11.8 21.454a10.002 10.002 0 011.238 4.819V61.03l19.682 11.177c4.802 2.728 6.484 8.832 3.757 13.634-2.728 4.802-8.831 6.482-13.634 3.757L299.429 75.55a10 10 0 01-5.061-8.696V46.539l-3.182-5.784-7.129 9.299a10 10 0 01-7.937 3.916h-25.604l-45.942 18.411a9.995 9.995 0 01-10.79-2.211l-8.403-8.402a9.998 9.998 0 01-2.93-7.071V26.573l-2.572-4.56-32.134 10.303v13.8a9.999 9.999 0 01-3.876 7.905l-25.387 19.666a9.997 9.997 0 01-10.415 1.127l-12.266-5.827H77.487v54.718a9.999 9.999 0 01-7.984 9.794l-40.658 8.369v26.001l46.092 32.572 33.468-14.41a10 10 0 0112.582 4.128l16.268 27.751 38.115 11.728a10.001 10.001 0 016.517 6.307l10.559 30.716 23.487 13.152a10 10 0 015.114 8.725v54.238l12.448 1.245a9.997 9.997 0 017.94 5.461l29.099 57.925a9.999 9.999 0 01-1.22 10.85l-34.544 41.897 39.434 28.617 42.691-44.774v-48.191a10 10 0 015.913-9.127l69.838-31.271 43.315-50.207V240.27c0-2.365.839-4.654 2.366-6.46l44.832-52.983v-26.929l-41.934-33.547-26.729-.954a10.026 10.026 0 01-2.704-.473l-.328-.105c-5.258-1.69-8.149-7.323-6.46-12.581a10 10 0 0111.247-6.791l28.993 1.035c2.147.077 4.213.843 5.891 2.185l48.271 38.617a10.001 10.001 0 013.753 7.809v35.398c0 2.365-.838 4.654-2.366 6.46l-44.832 52.983v64.988a9.993 9.993 0 01-2.429 6.532l-47.197 54.707a9.998 9.998 0 01-3.484 2.595l-65.956 29.532v45.716c0 2.57-.989 5.041-2.763 6.901l-51.488 54a9.996 9.996 0 01-7.242 3.097z"/></g><g id="XMLID_1368_"><path id="XMLID_419_" d="M371.661 105.572c-2.63 0-5.21-1.07-7.07-2.93s-2.93-4.44-2.93-7.07 1.069-5.21 2.93-7.07a10.077 10.077 0 017.07-2.93c2.63 0 5.21 1.07 7.069 2.93 1.86 1.86 2.931 4.44 2.931 7.07s-1.07 5.21-2.931 7.07a10.072 10.072 0 01-7.069 2.93z"/></g></g></svg>