<svg id="Capa_1" height="512" width="512" xmlns="http://www.w3.org/2000/svg"><path d="M481.359 90.322L239.531.624A9.998 9.998 0 00226.053 10v123.063L30.059 220.122a10 10 0 00-5.94 9.139V502c0 5.523 4.477 10 10 10h443.763c5.523 0 10-4.477 10-10V99.698a10 10 0 00-6.523-9.376zM44.119 453.254h181.934V492H44.119zm127.805-20H98.247v-59.208h73.677zM331.171 492v-92.461h51.592V492zm136.711 0h-21.874v-58.182c0-5.523-4.477-10-10-10s-10 4.477-10 10V492h-23.245V389.539c0-5.523-4.477-10-10-10h-71.592c-5.523 0-10 4.477-10 10V492h-23.247v-58.182c0-5.523-4.477-10-10-10s-10 4.477-10 10V492h-21.871V340.834c0-5.523-4.477-10-10-10s-10 4.477-10 10v92.42h-34.128v-69.208c0-5.523-4.477-10-10-10H88.247c-5.523 0-10 4.477-10 10v69.208H44.119V235.761l181.934-80.813v95.474c0 5.523 4.477 10 10 10s10-4.477 10-10V24.375l221.829 82.279z"/><path d="M236.05 305.811c-4.169 0-8.009-2.703-9.405-6.632-1.395-3.926-.178-8.449 3.061-11.096 3.284-2.683 8.018-2.987 11.62-.758 3.575 2.212 5.403 6.568 4.479 10.669-1.013 4.506-5.128 7.817-9.755 7.817zm-54.126 19.659H88.249c-5.523 0-10-4.477-10-10v-55.483a10 10 0 016.122-9.217l62.36-26.241a9.992 9.992 0 013.878-.783h31.314c5.523 0 10 4.477 10 10v81.724c.001 5.523-4.476 10-9.999 10zm-83.675-20h73.674v-61.724h-19.296l-54.378 22.882zm337.759-88.015h-55.076c-5.523 0-10-4.477-10-10v-68.399a9.999 9.999 0 0113.479-9.376l55.076 20.431a9.999 9.999 0 016.522 9.376v47.968c-.001 5.523-4.478 10-10.001 10zm-45.076-20h35.076v-31.012l-35.076-13.012zm-57.921 20h-55.085c-5.523 0-10-4.477-10-10V104.353c0-5.523 4.477-10 10-10h9.446c1.187 0 2.364.211 3.477.624l45.639 16.923a10 10 0 016.523 9.376v86.179c0 5.523-4.477 10-10 10zm-45.085-20h35.085v-69.222l-35.085-13.01zM436.01 346.838h-55.083c-5.523 0-10-4.477-10-10v-83.161c0-5.523 4.477-10 10-10h55.083c5.523 0 10 4.477 10 10v83.161c0 5.523-4.477 10-10 10zm-45.082-20h35.083v-63.161h-35.083zm-57.921 20h-55.082c-5.523 0-10-4.477-10-10v-83.161c0-5.523 4.477-10 10-10h55.082c5.523 0 10 4.477 10 10v83.161c0 5.523-4.477 10-10 10zm-45.083-20h35.082v-63.161h-35.082z"/></svg>