<svg id="Capa_1" height="512" width="512" xmlns="http://www.w3.org/2000/svg"><path d="M69.55 386H36c-5.523 0-10 4.477-10 10v66c0 5.523 4.477 10 10 10h20v30c0 5.523 4.477 10 10 10h410c5.522 0 10-4.477 10-10V10c0-5.523-4.478-10-10-10H361c-5.522 0-10 4.477-10 10s4.478 10 10 10h105v472H236v-20h20c5.522 0 10-4.477 10-10v-66c0-5.523-4.478-10-10-10h-37.5c-15.839 0-24.276-15.587-27.168-22.288-9.121-21.134-6.668-46.968 5.701-60.089C209.264 290.662 216 273.749 216 256c0-35.202-26.123-64.406-60-69.274V20h115c5.522 0 10-4.477 10-10s-4.478-10-10-10H146c-5.523 0-10 4.477-10 10v176.722c-29.906 4.17-52.579 27.043-58.358 53.972-4.896 22.837 1.268 45.615 16.915 62.496 14.514 15.655 13.511 39.84 6.079 56.864C95.16 372.597 84.118 386 69.55 386zM216 492H76v-20h140zm30-40H46v-46h200zM97.197 244.888C101.608 224.333 120.754 206 146 206c27.57 0 50 22.43 50 50 0 12.625-4.799 24.663-13.517 33.9-20.171 21.396-20.055 57.314-9.515 81.737 2.316 5.367 5.068 10.169 8.188 14.363h-73.073c4.237-5.15 7.926-11.174 10.882-17.945 12.252-28.065 8.428-58.864-9.741-78.462-11.154-12.035-15.538-28.33-12.027-44.705z"/><path d="M356 312c-38.598 0-70 31.402-70 70s31.402 70 70 70 70-31.402 70-70-31.402-70-70-70zm0 120c-27.57 0-50-22.43-50-50s22.43-50 50-50 50 22.43 50 50-22.43 50-50 50zM296 66h-90c-5.523 0-10 4.477-10 10s4.477 10 10 10h90c5.522 0 10-4.477 10-10s-4.478-10-10-10zm-100 70c0 5.523 4.477 10 10 10h210c5.522 0 10-4.477 10-10s-4.478-10-10-10H206c-5.523 0-10 4.477-10 10zm220 50H266c-5.522 0-10 4.477-10 10s4.478 10 10 10h150c5.522 0 10-4.477 10-10s-4.478-10-10-10zm0 60H266c-5.522 0-10 4.477-10 10s4.478 10 10 10h150c5.522 0 10-4.477 10-10s-4.478-10-10-10z"/><circle cx="316" cy="10" r="10"/></svg>