<svg viewBox="0 0 512 512" xmlns="http://www.w3.org/2000/svg" xmlns:xlink="http://www.w3.org/1999/xlink"><style>:root&gt;svg{display:none}:root&gt;svg:target{display:block}</style><svg viewBox="0 0 9 14" id="arrow-down" xmlns="http://www.w3.org/2000/svg"><path d="M5.002 12.29l2.645-2.644a.5.5 0 01.707.707L4.886 13.82a.5.5 0 01-.384.179h-.001a.5.5 0 01-.354-.147l-.01-.01-3.49-3.49a.5.5 0 11.707-.707l2.648 2.649V.5a.5.5 0 011 0v11.79z"/></svg><svg viewBox="0 0 18 14" id="check" xmlns="http://www.w3.org/2000/svg"><path d="M1 7l6 6L17 1"/></svg><svg viewBox="0 0 491.996 491.996" id="chevron" xmlns="http://www.w3.org/2000/svg"><path d="M484.132 124.986l-16.116-16.228c-5.072-5.068-11.82-7.86-19.032-7.86-7.208 0-13.964 2.792-19.036 7.86l-183.84 183.848L62.056 108.554c-5.064-5.068-11.82-7.856-19.028-7.856s-13.968 2.788-19.036 7.856l-16.12 16.128c-10.496 10.488-10.496 27.572 0 38.06l219.136 219.924c5.064 5.064 11.812 8.632 19.084 8.632h.084c7.212 0 13.96-3.572 19.024-8.632l218.932-219.328c5.072-5.064 7.856-12.016 7.864-19.224 0-7.212-2.792-14.068-7.864-19.128z"/></svg><svg viewBox="0 0 16 16" id="close" xmlns="http://www.w3.org/2000/svg"><path d="M9.175 8l6.075-6.075A.833.833 0 0014.075.75L8 6.825 1.925.742A.833.833 0 00.75 1.917L6.825 8 .742 14.075a.834.834 0 101.175 1.175L8 9.175l6.075 6.075a.833.833 0 001.175-1.175L9.175 8z"/></svg><svg viewBox="0 0 88 80" id="ellipse" xmlns="http://www.w3.org/2000/svg"><path fill-rule="evenodd" d="M39.5 2c22.17-.012 47.388 16.708 39.678 37.482C71.972 58.898 68.711 79 48 79 27.29 79 2 60.21 2 39.5S18.79 2.01 39.5 2z"/></svg><svg viewBox="0 0 155.139 155.139" id="facebook" xmlns="http://www.w3.org/2000/svg"><path d="M89.584 155.139V84.378h23.742l3.562-27.585H89.584V39.184c0-7.984 2.208-13.425 13.67-13.425l14.595-.006V1.08C115.325.752 106.661 0 96.577 0 75.52 0 61.104 12.853 61.104 36.452v20.341H37.29v27.585h23.814v70.761h28.48z"/></svg><svg viewBox="0 0 64 64" id="location" xmlns="http://www.w3.org/2000/svg"><path d="M32 0A24.032 24.032 0 008 24c0 17.23 22.36 38.81 23.31 39.72a.99.99 0 001.38 0C33.64 62.81 56 41.23 56 24A24.032 24.032 0 0032 0zm0 35a11 11 0 1111-11 11.007 11.007 0 01-11 11z"/></svg><svg viewBox="0 0 512 512" id="mail" xmlns="http://www.w3.org/2000/svg"><path d="M298.789 313.693c-12.738 8.492-27.534 12.981-42.789 12.981-15.254 0-30.05-4.489-42.788-12.981L3.409 173.82A76.269 76.269 0 010 171.403V400.6c0 26.278 21.325 47.133 47.133 47.133h417.733c26.278 0 47.133-21.325 47.133-47.133V171.402a75.21 75.21 0 01-3.416 2.422z"/><path d="M20.05 148.858l209.803 139.874c7.942 5.295 17.044 7.942 26.146 7.942 9.103 0 18.206-2.648 26.148-7.942L491.95 148.858c12.555-8.365 20.05-22.365 20.05-37.475 0-25.981-21.137-47.117-47.117-47.117H47.117C21.137 64.267 0 85.403 0 111.408a44.912 44.912 0 0020.05 37.45z"/></svg><svg viewBox="0 0 384 384" id="phone" xmlns="http://www.w3.org/2000/svg"><path d="M353.188 252.052c-23.51 0-46.594-3.677-68.469-10.906-10.719-3.656-23.896-.302-30.438 6.417l-43.177 32.594c-50.073-26.729-80.917-57.563-107.281-107.26l31.635-42.052c8.219-8.208 11.167-20.198 7.635-31.448-7.26-21.99-10.948-45.063-10.948-68.583C132.146 13.823 118.323 0 101.333 0h-70.52C13.823 0 0 13.823 0 30.813 0 225.563 158.438 384 353.188 384c16.99 0 30.813-13.823 30.813-30.813v-70.323c-.001-16.989-13.824-30.812-30.813-30.812z"/></svg><svg viewBox="0 0 300 300" id="telegram" xmlns="http://www.w3.org/2000/svg"><path d="M5.299 144.645l69.126 25.8 26.756 86.047c1.712 5.511 8.451 7.548 12.924 3.891l38.532-31.412a11.496 11.496 0 0114.013-.391l69.498 50.457c4.785 3.478 11.564.856 12.764-4.926L299.823 29.22c1.31-6.316-4.896-11.585-10.91-9.259L5.218 129.402c-7.001 2.7-6.94 12.612.081 15.243zm91.57 12.066l135.098-83.207c2.428-1.491 4.926 1.792 2.841 3.726L123.313 180.87a23.112 23.112 0 00-7.163 13.829l-3.798 28.146c-.503 3.758-5.782 4.131-6.819.494l-14.607-51.325c-1.673-5.854.765-12.107 5.943-15.303z"/></svg><svg viewBox="0 0 100 100" id="vk" xmlns="http://www.w3.org/2000/svg"><path clip-rule="evenodd" d="M49.1 72.6h4.8s1.4-.2 2.2-1c.7-.7.7-2.1.7-2.1s-.1-6.4 2.9-7.4c2.9-.9 6.7 6.2 10.7 8.9 3 2.1 5.3 1.6 5.3 1.6l10.7-.1s5.6-.3 2.9-4.7c-.2-.4-1.5-3.3-7.9-9.2-6.7-6.2-5.8-5.2 2.3-16 4.9-6.5 6.9-10.5 6.3-12.3-.6-1.6-4.2-1.2-4.2-1.2l-12 .1s-.9-.1-1.6.3c-.8.5-1.2 1.4-1.2 1.4s-1.9 5.1-4.4 9.4c-5.4 9.1-7.5 9.6-8.4 9-2-1.3-1.5-5.3-1.5-8.1 0-8.8 1.3-12.5-2.6-13.4-1.3-.3-2.3-.5-5.6-.6-4.3 0-7.9 0-10 1-1.4.7-2.4 2.2-1.8 2.2.8.1 2.6.5 3.5 1.8 1.2 1.7 1.2 5.4 1.2 5.4s.7 10.4-1.7 11.7c-1.6.9-3.8-.9-8.6-9.2-2.4-4.2-4.3-8.9-4.3-8.9s-.4-.9-1-1.3c-.5-.4-1.5-.7-2.6-.7l-10.7.1s-1.7 0-2.3.8c-.6.7 0 2 0 2s9 20.9 19.1 31.4c9.3 9.8 19.8 9.1 19.8 9.1z" fill-rule="evenodd"/></svg><svg viewBox="0 0 512 512" id="whatsapp" xmlns="http://www.w3.org/2000/svg"><path d="M256.064 0h-.128C114.784 0 0 114.816 0 256c0 56 18.048 107.904 48.736 150.048l-31.904 95.104 98.4-31.456C155.712 496.512 204 512 256.064 512 397.216 512 512 397.152 512 256S397.216 0 256.064 0zm148.96 361.504c-6.176 17.44-30.688 31.904-50.24 36.128-13.376 2.848-30.848 5.12-89.664-19.264-75.232-31.168-123.68-107.616-127.456-112.576-3.616-4.96-30.4-40.48-30.4-77.216s18.656-54.624 26.176-62.304c6.176-6.304 16.384-9.184 26.176-9.184 3.168 0 6.016.16 8.576.288 7.52.32 11.296.768 16.256 12.64 6.176 14.88 21.216 51.616 23.008 55.392 1.824 3.776 3.648 8.896 1.088 13.856-2.4 5.12-4.512 7.392-8.288 11.744-3.776 4.352-7.36 7.68-11.136 12.352-3.456 4.064-7.36 8.416-3.008 15.936 4.352 7.36 19.392 31.904 41.536 51.616 28.576 25.44 51.744 33.568 60.032 37.024 6.176 2.56 13.536 1.952 18.048-2.848 5.728-6.176 12.8-16.416 20-26.496 5.12-7.232 11.584-8.128 18.368-5.568 6.912 2.4 43.488 20.48 51.008 24.224 7.52 3.776 12.48 5.568 14.304 8.736 1.792 3.168 1.792 18.048-4.384 35.52z"/></svg></svg>