<svg id="Capa_1" height="512" width="512" xmlns="http://www.w3.org/2000/svg"><path d="M288.008 424.928h-7.185v-19.524c0-9.984-8.122-18.106-18.106-18.106H78.375c-9.984 0-18.106 8.122-18.106 18.106v19.524h-7.185c-9.984 0-18.106 8.122-18.106 18.106v17.025c0 9.984 8.122 18.106 18.106 18.106h44.612c4.129 0 7.475-3.347 7.475-7.476s-3.347-7.476-7.475-7.476H53.084a3.158 3.158 0 01-3.155-3.155v-17.025a3.158 3.158 0 013.155-3.155h234.923a3.158 3.158 0 013.155 3.155v17.025a3.158 3.158 0 01-3.155 3.155H132.109a7.476 7.476 0 100 14.952h155.898c9.984 0 18.106-8.122 18.106-18.106v-17.025c.001-9.983-8.122-18.106-18.105-18.106zm-22.136 0H75.22v-19.524a3.158 3.158 0 013.155-3.155h184.341a3.158 3.158 0 013.155 3.155v19.524zm239.509-17.141c-8.197-8.197-21.169-8.757-30.034-1.706l-206.481-206.48c2.657-4.381 2.845-9.847.572-14.387l35.784-35.784.264.264a14.777 14.777 0 0010.518 4.357c3.974 0 7.709-1.547 10.519-4.357l13.379-13.379c2.81-2.809 4.357-6.545 4.357-10.518s-1.547-7.709-4.357-10.518l-77.087-77.087a14.777 14.777 0 00-10.519-4.357 14.775 14.775 0 00-10.518 4.357L228.399 51.57a14.777 14.777 0 00-4.357 10.519c0 3.973 1.547 7.709 4.357 10.518l.264.264-35.784 35.784c-5.573-2.791-12.544-1.875-17.186 2.768l-30.435 30.435c-4.643 4.643-5.558 11.613-2.768 17.185l-35.784 35.784-.265-.265c-5.799-5.798-15.236-5.799-21.036 0l-13.38 13.379c-5.799 5.8-5.799 15.237 0 21.037l77.088 77.088a14.83 14.83 0 0010.518 4.349 14.83 14.83 0 0010.519-4.35l13.379-13.379c5.8-5.8 5.8-15.237 0-21.037l-.265-.265 35.784-35.784a14.875 14.875 0 006.667 1.581c2.677 0 5.347-.732 7.709-2.164l206.491 206.492a22.424 22.424 0 00-4.914 14.053 22.45 22.45 0 006.62 15.981c4.406 4.406 10.194 6.609 15.981 6.609s11.575-2.203 15.981-6.609l31.796-31.796c4.269-4.268 6.619-9.944 6.619-15.981s-2.349-11.71-6.617-15.979zM252.296 48.817l76.981 76.981-13.272 13.272-76.98-76.981zm-13.061 34.626l27.708 27.708 27.708 27.708-35.243 35.241-55.415-55.415zm-79.603 211.999l-76.981-76.981 13.272-13.272 76.981 76.981zm66.084-73.232L197.7 194.193a7.476 7.476 0 00-10.572 10.572l20.808 20.808-35.242 35.242-55.416-55.415 35.242-35.242 9.915 9.915a7.476 7.476 0 0010.572-10.572l-17.123-17.124 30.328-30.328 69.832 69.833zm18.593 2.551l14.287-14.287 206.068 206.068-7.144 7.143-7.144 7.143zm250.5 204.416l-31.796 31.796c-2.982 2.982-7.836 2.983-10.819 0a7.598 7.598 0 01-2.241-5.409 7.6 7.6 0 012.241-5.409l31.796-31.796c1.491-1.491 3.45-2.237 5.409-2.237s3.918.746 5.409 2.237c2.983 2.983 2.983 7.836.001 10.818zM53.781 186.892c1.46 1.46 3.373 2.19 5.286 2.19s3.826-.73 5.286-2.19a7.474 7.474 0 000-10.572l-19.822-19.822a7.474 7.474 0 00-10.572 0 7.474 7.474 0 000 10.572zm-11.522 28.854a7.475 7.475 0 00-5.82-8.826l-27.46-5.636a7.477 7.477 0 00-3.006 14.646l27.46 5.636a7.477 7.477 0 008.826-5.82zm42.123-56.768a7.477 7.477 0 1014.646-3.006l-5.636-27.46a7.475 7.475 0 00-14.646 3.005z"/></svg>