<svg id="Layer_1" height="512" width="512" xmlns="http://www.w3.org/2000/svg"><path d="M504.5 353.57h-81.493c-8.501-8.271-19.483-14.584-32.861-18.826-18.361-5.82-35.513-5.744-40.346-5.579-4.562.129-8.905-1.867-11.588-5.418l-38.528-50.968c-6.313-8.357-15.984-13.268-26.154-13.722V66h101.788l-52.022 158.673h-2.875a10.176 10.176 0 00-7.581 3.422c-2.022 2.268-2.979 5.324-2.628 8.385 3.186 27.697 36.162 48.584 76.708 48.584s73.522-20.887 76.708-48.583c.352-3.062-.605-6.118-2.628-8.386a10.176 10.176 0 00-7.581-3.422h-2.797L400.938 66h15.112c13.499 0 24.48-10.981 24.48-24.521C440.53 27.981 429.549 17 416.05 17H269.495c-7.559-10.298-19.743-17-33.468-17s-25.909 6.702-33.468 17h-73.251c-4.142 0-7.5 3.357-7.5 7.5s3.358 7.5 7.5 7.5h66.329c-.718 3.053-1.11 6.231-1.11 9.5s.392 6.447 1.11 9.5H56.01c-5.227 0-9.48-4.253-9.48-9.521 0-5.227 4.253-9.479 9.48-9.479h39.452c4.142 0 7.5-3.357 7.5-7.5s-3.358-7.5-7.5-7.5H56.01c-13.499 0-24.48 10.981-24.48 24.52C31.53 55.019 42.511 66 56.01 66h9.168L13.146 224.673H10.28a10.176 10.176 0 00-7.581 3.422c-2.022 2.268-2.98 5.324-2.627 8.385 3.185 27.697 36.162 48.584 76.708 48.584s73.523-20.887 76.709-48.585c.351-3.062-.607-6.118-2.629-8.386a10.18 10.18 0 00-7.58-3.42h-2.797L90.797 66H198.53v285.56h-12.79a45.846 45.846 0 00-25.593 7.794l-40.552-31.818c-11.831-9.284-27.562-10.292-40.167-3.886l-13.891-7.25c-18.298-9.544-40.964-2.419-50.523 15.874-4.641 8.87-5.547 19.011-2.552 28.555 2.992 9.535 9.52 17.331 18.378 21.951l107.999 56.35a38.666 38.666 0 003.895 1.726l32.249 25.303a7.473 7.473 0 004.625 1.6 7.5 7.5 0 004.635-13.4L82.581 374.592c-4.716-3.7-7.706-9.013-8.42-14.959-.714-5.942.933-11.808 4.635-16.515 7.651-9.727 21.8-11.422 31.54-3.781l45.283 35.529.035.028 72.359 56.773a7.5 7.5 0 008.844.304c.561-.381 44.164-29.784 86.275-44.656l.116-.042c12.077-4.258 24.028-7.32 34.802-8.153 24.71-1.908 46.313 4.457 60.856 17.922 12.743 11.797 19.479 28.44 19.479 48.133 0 4.143 3.357 7.5 7.5 7.5s7.5-3.357 7.5-7.5c0-23.98-8.398-44.431-24.288-59.141-17.646-16.335-43.277-24.109-72.202-21.869-10.393.803-21.6 3.391-32.913 7.034-7.501-10.801-19.198-17.814-32.302-19.327l-18.148-23.917v-53.89a19.72 19.72 0 0114.188 7.755l38.527 50.967c5.621 7.442 14.619 11.685 24.067 11.367 5.321-.188 52.578-.831 70.912 31.338a7.496 7.496 0 0010.229 2.802c3.433-1.957 4.726-6.213 3.056-9.726H497v47.404c0 4.143 3.357 7.5 7.5 7.5s7.5-3.357 7.5-7.5V361.07a7.5 7.5 0 00-7.5-7.5zM79.534 391.266l-41.756-21.787a22.23 22.23 0 01-11.003-13.142c-1.794-5.718-1.25-11.795 1.533-17.115 5.732-10.973 19.323-15.245 30.292-9.524l8.276 4.32c-6.087 7.83-8.791 17.551-7.608 27.404 1.192 9.927 6.183 18.795 14.054 24.971zM386.92 270.063c-29.119 0-54.796-13.241-60.686-30.391h121.371c-5.889 17.15-31.566 30.391-60.685 30.391zm-47.838-45.39L388.094 75.18l46.809 149.493zM416.05 32c5.228 0 9.48 4.253 9.48 9.52 0 5.228-4.253 9.48-9.48 9.48H276.416c.718-3.053 1.11-6.231 1.11-9.5s-.392-6.447-1.11-9.5zM236.027 15c14.612 0 26.499 11.888 26.499 26.5S250.639 68 236.027 68s-26.5-11.888-26.5-26.5 11.888-26.5 26.5-26.5zM76.779 270.063c-29.119 0-54.795-13.241-60.686-30.391h121.372c-5.89 17.15-31.567 30.391-60.686 30.391zm-47.848-45.39L77.953 75.179l46.81 149.494zM213.53 76.346A41.248 41.248 0 00236.027 83a41.242 41.242 0 0022.503-6.659v275.218h-45zm95.558 300.198c-33.136 13.037-64.498 32.488-76.068 39.987l-60.122-47.172a30.871 30.871 0 0112.842-2.799h100.58c8.836 0 17.009 3.689 22.768 9.984z"/><path d="M504.5 440.475a7.499 7.499 0 00-7.5 7.5v21.157l-76.626 2.515a7.564 7.564 0 00-.816.073l-.032.003L249.64 496.76a22.6 22.6 0 01-3.28.24 22.579 22.579 0 01-13.876-4.792l-23.071-18.103c-3.259-2.558-7.973-1.988-10.53 1.271s-1.988 7.974 1.271 10.53l23.072 18.104a37.655 37.655 0 0023.135 7.99c1.826 0 3.666-.135 5.468-.4l169.464-24.975 20.659-.678.012-.001 62.783-2.061a7.5 7.5 0 007.254-7.496v-28.415a7.5 7.5 0 00-7.501-7.499z"/></svg>