<svg version="1.1" id="Layer_1" xmlns="http://www.w3.org/2000/svg" x="0" y="0" viewBox="0 0 512 512" xml:space="preserve"><path d="M480.36 494.742h-14.382V43.146a8.629 8.629 0 00-8.629-8.629H296.27a8.628 8.628 0 00-8.629 8.629v37.393h-17.258V43.146a8.629 8.629 0 00-8.629-8.629H224.36V8.629c0-4.767-3.864-8.629-8.629-8.629s-8.629 3.862-8.629 8.629v25.888h-37.393a8.628 8.628 0 00-8.629 8.629v37.393h-25.888a8.628 8.628 0 00-8.629 8.629v71.91h-71.91a8.628 8.628 0 00-8.629 8.629v325.034H31.64c-4.766 0-8.629 3.862-8.629 8.629S26.875 512 31.64 512h448.72c4.766 0 8.629-3.862 8.629-8.629s-3.864-8.629-8.629-8.629zM178.337 51.775h74.786v28.764h-74.786V51.775zm-28.764 442.967h-5.753V480.36c0-4.767-3.864-8.629-8.629-8.629s-8.629 3.862-8.629 8.629v14.382h-5.753v-28.764h28.764v28.764zm57.528-221.484v221.484h-40.27v-37.393a8.629 8.629 0 00-8.629-8.629H112.18a8.628 8.628 0 00-8.629 8.629v37.393h-40.27V178.337h143.82v94.921zm8.629-112.179h-71.91V97.798h143.82v166.831h-63.28v-28.764h25.888c4.766 0 8.629-3.862 8.629-8.629s-3.864-8.629-8.629-8.629H224.36v-28.764h25.888c4.766 0 8.629-3.862 8.629-8.629s-3.864-8.629-8.629-8.629H224.36v-2.876a8.629 8.629 0 00-8.63-8.63zm152.45 333.663H224.36V281.888h143.82v212.854zm80.539 0h-63.281v-232.99c0-4.767-3.864-8.629-8.629-8.629s-8.629 3.862-8.629 8.629v2.876h-17.258v-2.876c0-4.767-3.864-8.629-8.629-8.629s-8.629 3.862-8.629 8.629v2.876H304.9V51.775h143.82v442.967z"/><path d="M261.753 477.485a8.63 8.63 0 008.629-8.629V307.778c0-4.767-3.864-8.629-8.629-8.629s-8.629 3.862-8.629 8.629v161.079a8.628 8.628 0 008.629 8.628zm34.517 0a8.63 8.63 0 008.629-8.629V307.778c0-4.767-3.864-8.629-8.629-8.629s-8.629 3.862-8.629 8.629v161.079a8.628 8.628 0 008.629 8.628zm34.516 0a8.63 8.63 0 008.629-8.629V307.778c0-4.767-3.864-8.629-8.629-8.629s-8.629 3.862-8.629 8.629v161.079a8.629 8.629 0 008.629 8.628zm11.506-368.182a8.628 8.628 0 008.629-8.629V89.169c0-4.767-3.864-8.629-8.629-8.629s-8.629 3.862-8.629 8.629v11.506a8.628 8.628 0 008.629 8.628zm34.517 0a8.628 8.628 0 008.629-8.629V89.169c0-4.767-3.864-8.629-8.629-8.629s-8.629 3.862-8.629 8.629v11.506a8.628 8.628 0 008.629 8.628zm34.517 0a8.628 8.628 0 008.629-8.629V89.169c0-4.767-3.864-8.629-8.629-8.629s-8.629 3.862-8.629 8.629v11.506a8.628 8.628 0 008.629 8.628zm-69.034 57.528a8.628 8.628 0 008.629-8.629v-11.506c0-4.767-3.864-8.629-8.629-8.629s-8.629 3.862-8.629 8.629v11.506a8.628 8.628 0 008.629 8.629zm34.517 0a8.628 8.628 0 008.629-8.629v-11.506c0-4.767-3.864-8.629-8.629-8.629s-8.629 3.862-8.629 8.629v11.506a8.628 8.628 0 008.629 8.629zm34.517 0a8.628 8.628 0 008.629-8.629v-11.506c0-4.767-3.864-8.629-8.629-8.629s-8.629 3.862-8.629 8.629v11.506a8.628 8.628 0 008.629 8.629zm-69.034 57.529a8.628 8.628 0 008.629-8.629v-11.506c0-4.767-3.864-8.629-8.629-8.629s-8.629 3.862-8.629 8.629v11.506a8.629 8.629 0 008.629 8.629zm34.517 0a8.628 8.628 0 008.629-8.629v-11.506c0-4.767-3.864-8.629-8.629-8.629s-8.629 3.862-8.629 8.629v11.506a8.629 8.629 0 008.629 8.629zm34.517 0a8.628 8.628 0 008.629-8.629v-11.506c0-4.767-3.864-8.629-8.629-8.629s-8.629 3.862-8.629 8.629v11.506a8.629 8.629 0 008.629 8.629zm-310.652 23.011a8.628 8.628 0 008.629-8.629v-11.506c0-4.767-3.864-8.629-8.629-8.629s-8.629 3.862-8.629 8.629v11.506a8.63 8.63 0 008.629 8.629zm34.517 0a8.628 8.628 0 008.629-8.629v-11.506c0-4.767-3.864-8.629-8.629-8.629s-8.629 3.862-8.629 8.629v11.506a8.629 8.629 0 008.629 8.629zm34.517 0a8.628 8.628 0 008.629-8.629v-11.506c0-4.767-3.864-8.629-8.629-8.629s-8.629 3.862-8.629 8.629v11.506a8.629 8.629 0 008.629 8.629zm-69.034 57.528a8.628 8.628 0 008.629-8.629v-11.506c0-4.767-3.864-8.629-8.629-8.629s-8.629 3.862-8.629 8.629v11.506a8.63 8.63 0 008.629 8.629zm34.517 0a8.628 8.628 0 008.629-8.629v-11.506c0-4.767-3.864-8.629-8.629-8.629s-8.629 3.862-8.629 8.629v11.506a8.629 8.629 0 008.629 8.629zm34.517 0a8.628 8.628 0 008.629-8.629v-11.506c0-4.767-3.864-8.629-8.629-8.629s-8.629 3.862-8.629 8.629v11.506a8.629 8.629 0 008.629 8.629zm-69.034 57.528a8.628 8.628 0 008.629-8.629v-11.506c0-4.767-3.864-8.629-8.629-8.629s-8.629 3.862-8.629 8.629v11.506a8.629 8.629 0 008.629 8.629zm34.517 0a8.628 8.628 0 008.629-8.629v-11.506c0-4.767-3.864-8.629-8.629-8.629s-8.629 3.862-8.629 8.629v11.506a8.628 8.628 0 008.629 8.629zm34.517 0a8.628 8.628 0 008.629-8.629v-11.506c0-4.767-3.864-8.629-8.629-8.629s-8.629 3.862-8.629 8.629v11.506a8.628 8.628 0 008.629 8.629zm-69.034 57.528a8.628 8.628 0 008.629-8.629V399.82c0-4.767-3.864-8.629-8.629-8.629s-8.629 3.862-8.629 8.629v11.506a8.629 8.629 0 008.629 8.629zm34.517 0a8.628 8.628 0 008.629-8.629V399.82c0-4.767-3.864-8.629-8.629-8.629s-8.629 3.862-8.629 8.629v11.506a8.628 8.628 0 008.629 8.629zm34.517 0a8.628 8.628 0 008.629-8.629V399.82c0-4.767-3.864-8.629-8.629-8.629s-8.629 3.862-8.629 8.629v11.506a8.628 8.628 0 008.629 8.629zm241.618-138.067a8.628 8.628 0 008.629-8.629v-11.506c0-4.767-3.864-8.629-8.629-8.629s-8.629 3.862-8.629 8.629v11.506a8.629 8.629 0 008.629 8.629zm0 57.528a8.628 8.628 0 008.629-8.629v-11.506c0-4.767-3.864-8.629-8.629-8.629s-8.629 3.862-8.629 8.629v11.506a8.629 8.629 0 008.629 8.629zm0 57.528a8.628 8.628 0 008.629-8.629v-11.506c0-4.767-3.864-8.629-8.629-8.629s-8.629 3.862-8.629 8.629v11.506a8.629 8.629 0 008.629 8.629zm0 57.528a8.628 8.628 0 008.629-8.629v-11.506c0-4.767-3.864-8.629-8.629-8.629s-8.629 3.862-8.629 8.629v11.506a8.629 8.629 0 008.629 8.629zm-152.45-319.281a8.629 8.629 0 00-8.629-8.629h-69.034a8.628 8.628 0 00-8.629 8.629 8.629 8.629 0 008.629 8.629h69.034a8.628 8.628 0 008.629-8.629z"/></svg>