<svg xmlns="http://www.w3.org/2000/svg" version="1.1" id="Capa_1" x="0" y="0" viewBox="0 0 511.926 511.926" xml:space="preserve" width="512" height="512"><path d="M271.399 511.926a7.5 7.5 0 01-7.086-5.039c-14.706-42.334-47.051-48.216-48.42-48.446a7.531 7.531 0 01-6.009-5.395c-.779-2.807.117-5.815 2.331-7.709.045-.039 4.588-3.926 10.752-9.433a7.499 7.499 0 0110.59.596 7.5 7.5 0 01-.596 10.59l-1.059.944c12.002 5.365 29.336 16.914 41.268 41.161l46.925-64.784-.696-32.324a7.502 7.502 0 011.482-4.639c1.352-1.817 32.463-42.635 90.859-38.772 1.152-10.168 5.546-26.792 21.412-36.966l-.743-13.369a7.499 7.499 0 011.844-5.355l5.336-6.098 3.826-55.479a7.498 7.498 0 012.093-4.699c.294-.304 29.353-30.394 45.932-52.668 1.689-4.03 2.419-15.072-4.988-31.946-2.592.114-5.871-.011-9.759-.679-9.512-1.634-6.99-16.419 2.539-14.783 5.541.951 8.924.247 9.453.122 3.562-1.263 7.226.426 8.92 3.815 16.324 32.647 7.827 49.286 6.804 51.075a7.628 7.628 0 01-.48.737c-14.813 20.042-38.786 45.494-45.736 52.772l-3.813 55.286a7.501 7.501 0 01-1.838 4.423l-4.986 5.698.83 14.947a7.497 7.497 0 01-4.134 7.124c-19.113 9.557-17.93 32.821-17.87 33.807a7.52 7.52 0 01-8.475 7.919c-47.971-6.393-76.703 22.453-83.451 30.183l.689 32.065a7.498 7.498 0 01-1.424 4.561l-56.249 77.656a7.5 7.5 0 01-6.073 3.102z"/><path d="M257.085 420.926c-6.43 0-9.802-7.824-5.569-12.521 4.121-4.572 5.362-6.627 5.699-7.281 1.223-11.664-.187-20.094-3.888-23.172-2.794-2.324-6.871-1.289-6.91-1.276a7.499 7.499 0 01-9.431-5.286l-4.47-17.15-19.882-1.531c-4.152-.32-7.36-4.208-6.873-8.354l5.333-45.375-6.452-5.166a7.5 7.5 0 01-2.8-5.439l-.674-12.145-22.024-6.298a7.5 7.5 0 01-4.81-10.215c2.283-5.223.839-7.951.365-8.848-2.132-4.03-8.344-7.451-16.212-8.928-31.219-5.859-38.91-25.68-40.644-37.689-13.505 2.942-24.086 10.941-24.21 11.036a7.504 7.504 0 01-5.306 1.507l-29.095-2.912a7.5 7.5 0 01-6.661-6.294l-1.192-7.558-6.99 4.116a7.5 7.5 0 01-9.115-1.167L6.587 174.222a7.5 7.5 0 01-2.144-6.125c3.316-29.848 25.947-47.405 26.909-48.138a7.503 7.503 0 014.959-1.523l27.217 1.505 4.944-26.158-7.651-9.956a7.497 7.497 0 01-1.548-4.838l.97-27.18a7.5 7.5 0 017.012-7.217l30.064-1.941a7.495 7.495 0 017.973 7.878c-.073 1.888.425 6.526 2.45 8.504.354.347 1.302 1.266 4.139 1.09 6.444-.403 13.978-5.09 19.617-9.504a23.509 23.509 0 01-5.464-6.929c-5.387-10.377-1.828-21.832-1.404-23.104a7.503 7.503 0 018.662-4.969c31.664 6.669 45.535-12.332 45.671-12.525 3.508-4.957 11.43-3.728 13.27 2.061l6.789 21.355a7.503 7.503 0 01-.592 5.917c-6.806 12.242-1.679 17.964 1.984 20.286 7.949 5.039 19.274-.823 24.308-3.972l.703-8.437a7.5 7.5 0 016.651-6.832l13.286-1.467c3.87-.432 7.376 1.971 8.136 5.783.167.614 1.7 5.759 7 8.707 1.239.69 2.224.779 3.508.319 6.517-2.329 14.375-15.827 17.874-24.668 2.428-6.136 11.45-6.192 13.93-.056 13.444 33.277 23.879 40.693 25.577 41.722 2.902.579 4.271 2.668 4.866 5.645l1.114 5.572 2.02-2.188a7.506 7.506 0 017.519-2.14l36 10a7.5 7.5 0 014.771 4.016l4.856 10.252 4.564-3.804a7.503 7.503 0 0110.631 1.042c12.261 15.148 27.49 6.41 29.187 5.365 3.063-1.949 7.04-1.398 9.5 1.274 2.54 2.757 5.118 5.36 7.664 7.735 7.058 6.583-3.162 17.564-10.231 10.969a150.55 150.55 0 01-4.557-4.438c-9.774 3.939-24.903 5.494-37.955-5.954l-6.637 5.53c-3.67 3.059-9.526 1.785-11.579-2.551l-7.533-15.902-28.285-7.856-8.894 9.635c-4.076 4.415-11.687 2.276-12.866-3.616l-3.325-16.623c-5.227-3.621-13.76-12.353-23.853-33.354-4.654 7.525-11.263 15.634-19.294 18.513-5.361 1.922-10.847 1.462-15.865-1.328-6.145-3.417-9.761-8.203-11.828-12.068l-1.519.167-.487 5.846a7.498 7.498 0 01-2.879 5.304c-.999.775-24.696 18.835-44.111 6.527-9.524-6.038-17.099-19.268-8.591-37.272l-2.243-7.055c-7.313 5.348-18.887 11.006-35.112 11.007-2.651 0-5.424-.151-8.325-.479.072 1.779.417 3.647 1.267 5.256 1.269 2.401 3.603 4.084 7.133 5.145a7.498 7.498 0 013.298 12.33c-1.896 2.009-19.037 19.659-36.991 20.782-7.912.492-12.876-2.674-15.648-5.42-3.465-3.43-5.2-7.804-6.061-11.59l-16.117 1.041-.632 17.702 8.053 10.479a7.504 7.504 0 011.423 5.963l-6.789 35.916a7.493 7.493 0 01-7.784 6.096l-30.765-1.701c-4.515 4.167-15.554 15.837-18.638 32.708l21.927 21.982 11.477-6.757a7.5 7.5 0 0111.213 5.295l2.007 12.726 20.564 2.058c5.741-3.828 20.491-12.487 37.532-13.34a7.498 7.498 0 017.81 8.474c-.282 2.456-1.932 24.694 28.861 30.473 12.625 2.369 22.358 8.44 26.705 16.656 1.693 3.2 3.173 7.838 2.439 13.693l20.026 5.727a7.499 7.499 0 015.426 6.795l.784 14.127 7.083 5.672a7.502 7.502 0 012.761 6.73l-4.908 41.752L239 339.694a7.5 7.5 0 016.682 5.586l4.218 16.185c3.895.188 8.67 1.339 13.018 4.954 8.045 6.69 11.123 19.109 9.146 36.911-.355 3.205-2.091 7.002-9.405 15.117a7.483 7.483 0 01-5.574 2.479zm64.542-356.979zM66.463 280.426h-59c-9.652 0-9.668-15 0-15h59c9.652 0 9.668 15 0 15zm342 206h-59c-9.652 0-9.668-15 0-15h59c9.652 0 9.668 15 0 15zm67-57h-59c-9.652 0-9.668-15 0-15h59c9.652 0 9.668 15 0 15zm-417 0h-26c-9.652 0-9.668-15 0-15h26c9.652 0 9.668 15 0 15zm111 0h-70c-9.652 0-9.668-15 0-15h70c9.652 0 9.668 15 0 15zm335-383h-26c-9.652 0-9.668-15 0-15h26c9.652 0 9.668 15 0 15zm-67 0h-70c-9.652 0-9.668-15 0-15h70c9.652 0 9.668 15 0 15z"/><path d="M178.463 353.426h-114c-9.652 0-9.668-15 0-15h114c9.652 0 9.668 15 0 15z"/></svg>