<svg id="Capa_1" height="512" width="512" xmlns="http://www.w3.org/2000/svg"><path d="M354.713 344.308l11.736-11.735c2.863-2.863 4.44-6.67 4.44-10.719s-1.577-7.856-4.439-10.719l-10.901-10.9a88.026 88.026 0 008.612-20.777h15.41c8.358 0 15.158-6.8 15.158-15.159v-16.597c0-8.359-6.8-15.159-15.158-15.159h-15.41a88.068 88.068 0 00-8.612-20.777l10.9-10.9c2.863-2.863 4.44-6.67 4.44-10.719s-1.577-7.856-4.44-10.719l-11.735-11.736c-5.91-5.909-15.527-5.911-21.438 0l-10.901 10.9a88.023 88.023 0 00-20.776-8.611v-15.41c0-8.358-6.801-15.159-15.159-15.159h-16.597c-8.358 0-15.159 6.8-15.159 15.159v15.41a88.048 88.048 0 00-20.776 8.611l-10.9-10.899a15.054 15.054 0 00-10.719-4.441 15.064 15.064 0 00-10.72 4.44l-11.734 11.735c-2.863 2.863-4.44 6.67-4.44 10.719s1.577 7.856 4.439 10.719l10.9 10.9a87.97 87.97 0 00-8.611 20.777h-15.41c-8.358 0-15.159 6.8-15.159 15.159v16.597c0 8.359 6.801 15.159 15.159 15.159h15.41a88.03 88.03 0 008.611 20.777l-10.899 10.9c-2.863 2.863-4.44 6.67-4.44 10.719s1.577 7.856 4.439 10.719l11.735 11.736a15.063 15.063 0 0010.72 4.44c4.05 0 7.856-1.577 10.719-4.44l10.9-10.9a88.023 88.023 0 0020.776 8.611v15.41c0 8.358 6.801 15.159 15.159 15.159h16.597c8.358 0 15.159-6.8 15.159-15.159v-15.41a88.048 88.048 0 0020.776-8.611l10.9 10.9c5.912 5.91 15.529 5.912 21.438 0zm-35.405-26.638a73.377 73.377 0 01-26.667 11.052 7.5 7.5 0 00-6.042 7.357v21.351a.16.16 0 01-.159.159h-16.597a.159.159 0 01-.159-.159v-21.351a7.5 7.5 0 00-6.042-7.357 73.395 73.395 0 01-26.667-11.052 7.485 7.485 0 00-4.168-1.266 7.49 7.49 0 00-5.305 2.197l-15.103 15.102c-.053.052-.171.051-.224-.001l-11.736-11.736c-.053-.053-.053-.171.001-.224l15.101-15.102a7.501 7.501 0 00.93-9.474 73.39 73.39 0 01-11.052-26.667 7.498 7.498 0 00-7.356-6.042h-21.351a.159.159 0 01-.159-.159v-16.597c0-.088.071-.159.159-.159h21.351c3.58 0 6.661-2.53 7.356-6.042a73.388 73.388 0 0111.052-26.667 7.5 7.5 0 00-.93-9.474l-15.102-15.102c-.053-.053-.053-.171.001-.224l11.735-11.736c.053-.052.171-.053.224 0l15.103 15.101a7.501 7.501 0 009.473.931 73.377 73.377 0 0126.667-11.052 7.5 7.5 0 006.042-7.357v-21.35a.16.16 0 01.159-.159h16.597c.088 0 .159.071.159.159v21.351a7.5 7.5 0 006.042 7.357 73.395 73.395 0 0126.667 11.052 7.499 7.499 0 009.473-.931l15.103-15.101a.16.16 0 01.225 0l11.736 11.736c.053.053.053.171-.001.224l-15.102 15.102a7.501 7.501 0 00-.93 9.474 73.368 73.368 0 0111.051 26.666 7.5 7.5 0 007.357 6.042h21.352c.087 0 .158.071.158.159v16.597a.159.159 0 01-.158.159H358.22a7.5 7.5 0 00-7.357 6.042 73.35 73.35 0 01-11.051 26.666 7.5 7.5 0 00.93 9.474l15.103 15.102c.053.053.053.171 0 .224l-11.737 11.736a.161.161 0 01-.225 0L328.781 318.6a7.5 7.5 0 00-9.473-.93z"/><path d="M278.142 230.003c9.277 0 17.919 5.003 22.553 13.056a7.5 7.5 0 0013.002-7.481c-7.303-12.691-20.927-20.575-35.555-20.575-22.605 0-40.997 18.391-40.997 40.997s18.392 40.997 40.997 40.997c14.456 0 27.566-7.386 35.071-19.758 2.148-3.542 1.02-8.154-2.522-10.302s-8.155-1.02-10.302 2.523c-4.763 7.851-13.079 12.538-22.247 12.538-14.335 0-25.997-11.662-25.997-25.997s11.662-25.998 25.997-25.998zM340.568 80.52c51.308 18.31 91.946 57.988 111.496 108.86 2.101 5.469 7.458 9.143 13.331 9.143h17.215a14.33 14.33 0 0011.668-6.029 14.33 14.33 0 001.835-13.006c-11.462-32.733-29.869-61.92-54.709-86.75-26.105-26.105-56.908-45.056-91.554-56.327a14.369 14.369 0 00-12.854 2.03 14.339 14.339 0 00-5.896 11.568v17.06c0 6.023 3.804 11.43 9.468 13.451zm5.532-29.555c32.014 10.566 60.505 28.185 84.697 52.378l.002.001c23 22.991 40.1 49.964 50.833 80.178h-15.75C444.754 128.95 401.142 86.369 346.1 66.568zm139.455 253.464h-16.924a14.267 14.267 0 00-13.571 9.815c-17.894 54.207-60.688 98.031-114.474 117.23a14.32 14.32 0 00-9.486 13.458v17.06c.193 8.498 8.455 16.821 18.751 13.598 34.646-11.271 65.448-30.222 91.554-56.327 26.99-26.99 46.995-60.328 57.85-96.407 1.316-4.375.508-8.988-2.219-12.656-2.728-3.668-6.912-5.771-11.481-5.771zm-54.758 104.228c-24.192 24.193-52.684 41.811-84.697 52.378v-15.603c57.729-20.771 103.67-67.817 123.044-126.003h15.476c-10.205 33.371-28.802 64.207-53.823 89.228zm-215.102 22.817c-45.106-16.1-81.935-48.548-103.701-91.367-3.232-6.358-10.724-9.398-17.434-7.067h.001a80.917 80.917 0 01-13.644 3.438c-4.521.726-8.325 3.472-10.438 7.532-2.103 4.042-2.168 8.709-.181 12.802 11.189 23.049 26.188 44.061 44.578 62.452 26.105 26.105 56.908 45.056 91.554 56.327 7.512 2.871 18.965-3.358 18.752-13.598v-17.06a14.316 14.316 0 00-9.487-13.459zm-5.511 29.561c-32.014-10.566-60.506-28.185-84.698-52.378-16.974-16.974-30.854-36.323-41.265-57.523a96.032 96.032 0 0014.663-3.719c23.467 45.852 62.96 80.63 111.3 98.018zm56.227-378.918h25.982c10.312 0 18.701-8.389 18.701-18.701V37.433c0-10.312-8.39-18.701-18.701-18.701h-25.982c-10.312 0-18.701 8.389-18.701 18.701v25.982c0 10.313 8.39 18.702 18.701 18.702zm-3.701-44.684a3.705 3.705 0 013.701-3.701h25.982a3.705 3.705 0 013.701 3.701v25.982a3.705 3.705 0 01-3.701 3.701h-25.982a3.705 3.705 0 01-3.701-3.701zm29.684 392.45h-25.982c-10.312 0-18.701 8.389-18.701 18.701v25.982c0 10.312 8.39 18.701 18.701 18.701h25.982c10.312 0 18.701-8.389 18.701-18.701v-25.982c0-10.312-8.39-18.701-18.701-18.701zm3.701 44.684a3.705 3.705 0 01-3.701 3.701h-25.982a3.705 3.705 0 01-3.701-3.701v-25.982a3.705 3.705 0 013.701-3.701h25.982a3.705 3.705 0 013.701 3.701zm197.204-256.453h-25.982c-10.312 0-18.701 8.39-18.701 18.702v25.982c0 10.312 8.39 18.702 18.701 18.702h25.982c10.312 0 18.701-8.39 18.701-18.702v-25.982c0-10.313-8.39-18.702-18.701-18.702zM497 262.797a3.706 3.706 0 01-3.701 3.702h-25.982a3.706 3.706 0 01-3.701-3.702v-25.982a3.706 3.706 0 013.701-3.702h25.982a3.706 3.706 0 013.701 3.702zM43.222 251.448a7.498 7.498 0 00-.001 10.606l12.409 12.41a7.5 7.5 0 0010.608 0l26.321-26.321a7.5 7.5 0 00-10.607-10.606l-21.018 21.018-7.105-7.106a7.499 7.499 0 00-10.607-.001z"/><path d="M135.779 256c0-30.042-20.133-56.859-48.96-65.213a7.501 7.501 0 00-4.176 14.408c22.454 6.507 38.136 27.4 38.136 50.806 0 29.164-23.727 52.89-52.89 52.89S15 285.164 15 256c0-23.292 14.926-43.589 37.142-50.508a7.501 7.501 0 00-4.461-14.322C19.161 200.052 0 226.105 0 256c0 37.435 30.455 67.89 67.89 67.89s67.889-30.455 67.889-67.89zm10.522-198.076h57.05L192.854 68.42a7.5 7.5 0 005.304 12.803 7.478 7.478 0 005.304-2.197l23.299-23.299c2.562-2.49 3.221-7.45 0-10.606l-23.299-23.299a7.5 7.5 0 00-10.607 10.606l10.496 10.496h-57.05c-4.143 0-7.5 3.358-7.5 7.5s3.357 7.5 7.5 7.5z"/></svg>