<svg xmlns="http://www.w3.org/2000/svg" version="1.1" id="Capa_1" x="0" y="0" xml:space="preserve" width="512" height="512"><path d="M432.355 72.145h-16.548V55.597c0-8.556-6.96-15.516-15.516-15.516h-98.652c-2.649-4.774-7.738-8.016-13.574-8.016H174.601C171.085 13.824 155.01 0 135.758 0c-19.251 0-35.327 13.824-38.842 32.064H79.645c-8.556 0-15.516 6.96-15.516 15.516V256c0 5.836 3.242 10.925 8.016 13.574V464.42c0 8.556 6.96 15.516 15.516 15.516h16.548v16.548c0 8.556 6.96 15.517 15.516 15.517h312.629c8.556 0 15.516-6.961 15.516-15.517V87.661c.001-8.556-6.959-15.516-15.515-15.516zM79.129 47.581c0-.285.231-.516.516-.516h16.548v72.662c0 21.816 17.749 39.564 39.565 39.564s39.564-17.749 39.564-39.565V87.661c0-12.976-10.557-23.532-23.532-23.532s-23.532 10.557-23.532 23.532v16.032a7.5 7.5 0 0015 0V87.661c0-4.705 3.828-8.532 8.532-8.532s8.532 3.828 8.532 8.532v32.064c0 13.545-11.02 24.565-24.565 24.565s-24.564-11.02-24.564-24.564V39.594l.001-.029-.001-.019C111.204 26.009 122.219 15 135.758 15c10.93 0 20.211 7.177 23.389 17.064h-23.393a7.5 7.5 0 000 15h152.31c.285 0 .516.231.516.516V256a.516.516 0 01-.516.516H79.645a.516.516 0 01-.516-.516V47.581zm353.742 448.902a.517.517 0 01-.516.517H119.726a.516.516 0 01-.516-.517v-16.548h210.312a23.376 23.376 0 0016.64-6.893l62.753-62.751a23.378 23.378 0 006.893-16.64V127.743a7.5 7.5 0 00-15 0v265.048h-56.629c-8.556 0-15.516 6.96-15.516 15.516v56.629h-241a.516.516 0 01-.516-.516V271.516h200.919c8.556 0 15.516-6.96 15.516-15.516V55.081h96.71c.285 0 .516.231.516.516v40.081a7.5 7.5 0 0015 0v-8.533h16.548c.285 0 .516.231.516.516v408.822zm-89.21-42.153v-46.023c0-.285.231-.516.516-.516h46.025l-46.541 46.539z"/><path d="M207.903 119.209h40.081a7.5 7.5 0 000-15h-40.081a7.5 7.5 0 000 15zm0 40.082h40.081a7.5 7.5 0 000-15h-40.081a7.5 7.5 0 000 15zm-88.177 40.08h128.258a7.5 7.5 0 000-15H119.726a7.5 7.5 0 000 15zm240.483-15h-16.032a7.5 7.5 0 000 15h16.032a7.5 7.5 0 000-15zm0-80.162h-16.032a7.5 7.5 0 000 15h16.032a7.5 7.5 0 000-15zm0 40.082h-16.032a7.5 7.5 0 000 15h16.032a7.5 7.5 0 000-15zm0 80.161h-16.032a7.5 7.5 0 000 15h16.032a7.5 7.5 0 000-15zm-216.435 72.145h-16.033a7.5 7.5 0 000 15h16.033a7.5 7.5 0 000-15zm0 80.161h-16.033a7.5 7.5 0 000 15h16.033a7.5 7.5 0 000-15zm0-40.081h-16.033a7.5 7.5 0 000 15h16.033a7.5 7.5 0 000-15zm216.435-40.08H183.855a7.5 7.5 0 000 15h176.354a7.5 7.5 0 000-15zm-64.128 80.161H183.855a7.5 7.5 0 000 15h112.226a7.5 7.5 0 000-15zm64.128-40.081H183.855a7.5 7.5 0 000 15h176.354a7.5 7.5 0 000-15z"/></svg>