<svg id="Capa_1" enable-background="new 0 0 512 512" height="512" viewBox="0 0 512 512" width="512" xmlns="http://www.w3.org/2000/svg"><g><g><path d="m288.008 424.928h-7.185v-19.524c0-9.984-8.122-18.106-18.106-18.106h-184.342c-9.984 0-18.106 8.122-18.106 18.106v19.524h-7.185c-9.984 0-18.106 8.122-18.106 18.106v17.025c0 9.984 8.122 18.106 18.106 18.106h44.612c4.129 0 7.475-3.347 7.475-7.476s-3.347-7.476-7.475-7.476h-44.612c-1.74 0-3.155-1.415-3.155-3.155v-17.025c0-1.74 1.415-3.155 3.155-3.155h234.923c1.74 0 3.155 1.415 3.155 3.155v17.025c0 1.74-1.415 3.155-3.155 3.155h-155.898c-4.129 0-7.476 3.347-7.476 7.476s3.347 7.476 7.476 7.476h155.898c9.984 0 18.106-8.122 18.106-18.106v-17.025c.001-9.983-8.122-18.106-18.105-18.106zm-22.136 0h-190.652v-19.524c0-1.74 1.415-3.155 3.155-3.155h184.341c1.74 0 3.155 1.415 3.155 3.155v19.524z"/><path d="m505.381 407.787c-8.197-8.197-21.169-8.757-30.034-1.706l-206.481-206.48c2.657-4.381 2.845-9.847.572-14.387l35.784-35.784.264.264c2.81 2.81 6.545 4.357 10.518 4.357 3.974 0 7.709-1.547 10.519-4.357l13.379-13.379c2.81-2.809 4.357-6.545 4.357-10.518s-1.547-7.709-4.357-10.518l-77.087-77.087c-2.81-2.81-6.545-4.357-10.519-4.357-3.973 0-7.709 1.547-10.518 4.357l-13.379 13.378c-2.81 2.81-4.357 6.545-4.357 10.519 0 3.973 1.547 7.709 4.357 10.518l.264.264-35.784 35.784c-5.573-2.791-12.544-1.875-17.186 2.768l-30.435 30.435c-4.643 4.643-5.558 11.613-2.768 17.185l-35.784 35.784-.265-.265c-5.799-5.798-15.236-5.799-21.036 0l-13.38 13.379c-5.799 5.8-5.799 15.237 0 21.037l77.088 77.088c2.9 2.899 6.708 4.349 10.518 4.349 3.809 0 7.619-1.45 10.519-4.35l13.379-13.379c5.8-5.8 5.8-15.237 0-21.037l-.265-.265 35.784-35.784c2.092 1.048 4.377 1.582 6.667 1.581 2.677 0 5.347-.732 7.709-2.164l206.491 206.492c-3.177 3.984-4.914 8.882-4.914 14.053 0 6.037 2.351 11.713 6.62 15.981 4.406 4.406 10.194 6.609 15.981 6.609s11.575-2.203 15.981-6.609l31.796-31.796c4.269-4.268 6.619-9.944 6.619-15.981s-2.349-11.71-6.617-15.979zm-253.085-358.97 76.981 76.981-13.272 13.272-76.98-76.981zm-13.061 34.626 27.708 27.708 27.708 27.708-35.243 35.241-55.415-55.415zm-79.603 211.999-76.981-76.981 13.272-13.272 76.981 76.981zm66.084-73.232-28.016-28.017c-2.919-2.919-7.653-2.919-10.572 0-2.92 2.919-2.92 7.653 0 10.572l20.808 20.808-35.242 35.242-55.416-55.415 35.242-35.242 9.915 9.915c2.919 2.919 7.653 2.919 10.572 0 2.92-2.919 2.92-7.653 0-10.572l-17.123-17.124 30.328-30.328 69.832 69.833zm18.593 2.551 14.287-14.287 206.068 206.068-7.144 7.143-7.144 7.143zm250.5 204.416-31.796 31.796c-2.982 2.982-7.836 2.983-10.819 0-1.445-1.445-2.241-3.365-2.241-5.409 0-2.043.796-3.964 2.241-5.409l31.796-31.796c1.491-1.491 3.45-2.237 5.409-2.237s3.918.746 5.409 2.237c2.983 2.983 2.983 7.836.001 10.818z"/><path d="m53.781 186.892c1.46 1.46 3.373 2.19 5.286 2.19s3.826-.73 5.286-2.19c2.92-2.919 2.92-7.653 0-10.572l-19.822-19.822c-2.919-2.92-7.652-2.92-10.572 0-2.92 2.919-2.92 7.652 0 10.572z"/><path d="m42.259 215.746c.83-4.044-1.775-7.996-5.82-8.826l-27.46-5.636c-4.041-.831-7.996 1.776-8.826 5.82s1.775 7.996 5.82 8.826l27.46 5.636c.507.104 1.012.154 1.511.154 3.476 0 6.59-2.437 7.315-5.974z"/><path d="m84.382 158.978c.726 3.538 3.839 5.974 7.315 5.974.498 0 1.004-.05 1.511-.154 4.044-.83 6.65-4.781 5.82-8.826l-5.636-27.46c-.829-4.044-4.783-6.651-8.826-5.82-4.044.83-6.65 4.781-5.82 8.825z"/></g></g></svg>