<svg id="Layer_1" enable-background="new 0 0 512 512" height="512" viewBox="0 0 512 512" width="512" xmlns="http://www.w3.org/2000/svg"><g><g><path d="m504.5 353.57h-81.493c-8.501-8.271-19.483-14.584-32.861-18.826-18.361-5.82-35.513-5.744-40.346-5.579-4.562.129-8.905-1.867-11.588-5.418l-38.528-50.968c-6.313-8.357-15.984-13.268-26.154-13.722v-193.057h101.788l-52.022 158.673h-2.875c-2.879 0-5.643 1.247-7.581 3.422-2.022 2.268-2.979 5.324-2.628 8.385 3.186 27.697 36.162 48.584 76.708 48.584s73.522-20.887 76.708-48.583c.352-3.062-.605-6.118-2.628-8.386-1.938-2.175-4.702-3.422-7.581-3.422h-2.797l-49.684-158.673h15.112c13.499 0 24.48-10.981 24.48-24.521 0-13.498-10.981-24.479-24.48-24.479h-146.555c-7.559-10.298-19.743-17-33.468-17s-25.909 6.702-33.468 17h-73.251c-4.142 0-7.5 3.357-7.5 7.5s3.358 7.5 7.5 7.5h66.329c-.718 3.053-1.11 6.231-1.11 9.5s.392 6.447 1.11 9.5h-115.023c-.023 0-.046 0-.069 0h-24.535c-5.227 0-9.48-4.253-9.48-9.521 0-5.227 4.253-9.479 9.48-9.479h39.452c4.142 0 7.5-3.357 7.5-7.5s-3.358-7.5-7.5-7.5h-39.452c-13.499 0-24.48 10.981-24.48 24.52 0 13.499 10.981 24.48 24.48 24.48h9.168l-52.032 158.673h-2.866c-2.879 0-5.643 1.247-7.581 3.422-2.022 2.268-2.98 5.324-2.627 8.385 3.185 27.697 36.162 48.584 76.708 48.584s73.523-20.887 76.709-48.585c.351-3.062-.607-6.118-2.629-8.386-1.938-2.173-4.701-3.42-7.58-3.42h-2.797l-49.686-158.673h107.733v285.56h-12.79c-9.177 0-18.064 2.735-25.593 7.794l-40.552-31.818c-11.831-9.284-27.562-10.292-40.167-3.886l-13.891-7.25c-18.298-9.544-40.964-2.419-50.523 15.874-4.641 8.87-5.547 19.011-2.552 28.555 2.992 9.535 9.52 17.331 18.378 21.951l107.999 56.35c1.269.658 2.578 1.218 3.895 1.726l32.249 25.303c1.374 1.077 3.005 1.6 4.625 1.6 2.225 0 4.426-.984 5.906-2.87 2.557-3.259 1.988-7.974-1.271-10.53l-101.662-79.767c-4.716-3.7-7.706-9.013-8.42-14.959-.714-5.942.933-11.808 4.635-16.515 7.651-9.727 21.8-11.422 31.54-3.781l45.283 35.529c.012.009.023.019.035.028l72.359 56.773c2.567 2.015 6.143 2.138 8.844.304.561-.381 44.164-29.784 86.275-44.656.039-.014.077-.027.116-.042 12.077-4.258 24.028-7.32 34.802-8.153 24.71-1.908 46.313 4.457 60.856 17.922 12.743 11.797 19.479 28.44 19.479 48.133 0 4.143 3.357 7.5 7.5 7.5s7.5-3.357 7.5-7.5c0-23.98-8.398-44.431-24.288-59.141-17.646-16.335-43.277-24.109-72.202-21.869-10.393.803-21.6 3.391-32.913 7.034-7.501-10.801-19.198-17.814-32.302-19.327l-18.148-23.917v-53.89c5.528.432 10.739 3.192 14.188 7.755l38.527 50.967c5.621 7.442 14.619 11.685 24.067 11.367 5.321-.188 52.578-.831 70.912 31.338 1.383 2.427 3.916 3.787 6.522 3.787 1.259 0 2.535-.317 3.707-.985 3.433-1.957 4.726-6.213 3.056-9.726h62.489v47.404c0 4.143 3.357 7.5 7.5 7.5s7.5-3.357 7.5-7.5v-54.902c0-4.142-3.357-7.5-7.5-7.5zm-424.966 37.696-41.756-21.787c-5.304-2.766-9.212-7.434-11.003-13.142-1.794-5.718-1.25-11.795 1.533-17.115 5.732-10.973 19.323-15.245 30.292-9.524l8.276 4.32c-6.087 7.83-8.791 17.551-7.608 27.404 1.192 9.927 6.183 18.795 14.054 24.971zm307.386-121.203c-29.119 0-54.796-13.241-60.686-30.391h121.371c-5.889 17.15-31.566 30.391-60.685 30.391zm-47.838-45.39 49.012-149.493 46.809 149.493zm76.968-192.673c5.228 0 9.48 4.253 9.48 9.52 0 5.228-4.253 9.48-9.48 9.48h-25.294c-.023 0-.046 0-.069 0h-4.886c-.019 0-.038 0-.057 0h-109.328c.718-3.053 1.11-6.231 1.11-9.5s-.392-6.447-1.11-9.5zm-180.023-17c14.612 0 26.499 11.888 26.499 26.5s-11.887 26.5-26.499 26.5-26.5-11.888-26.5-26.5 11.888-26.5 26.5-26.5zm-159.248 255.063c-29.119 0-54.795-13.241-60.686-30.391h121.372c-5.89 17.15-31.567 30.391-60.686 30.391zm-47.848-45.39 49.022-149.494 46.81 149.494zm184.599-148.327c6.487 4.202 14.209 6.654 22.497 6.654 8.291 0 16.015-2.454 22.503-6.659v190.963.018 84.237h-45zm95.558 300.198c-33.136 13.037-64.498 32.488-76.068 39.987l-60.122-47.172c3.997-1.827 8.367-2.799 12.842-2.799h100.58c8.836 0 17.009 3.689 22.768 9.984z"/><path d="m504.5 440.475c-4.143 0-7.5 3.357-7.5 7.5v21.157l-76.626 2.515c-.276.009-.548.035-.816.073-.01.001-.021.001-.032.003l-169.886 25.037c-1.08.159-2.184.24-3.28.24-5.009 0-9.938-1.702-13.876-4.792l-23.071-18.103c-3.259-2.558-7.973-1.988-10.53 1.271s-1.988 7.974 1.271 10.53l23.072 18.104c6.569 5.152 14.785 7.99 23.135 7.99 1.826 0 3.666-.135 5.468-.4l169.464-24.975 20.659-.678c.004 0 .008-.001.012-.001l62.783-2.061c4.044-.133 7.254-3.45 7.254-7.496v-28.415c-.001-4.142-3.358-7.499-7.501-7.499z"/></g></g></svg>