<?xml version="1.0" encoding="iso-8859-1"?>
<!-- Generator: Adobe Illustrator 21.0.0, SVG Export Plug-In . SVG Version: 6.00 Build 0)  -->
<svg xmlns="http://www.w3.org/2000/svg" xmlns:xlink="http://www.w3.org/1999/xlink" version="1.1" id="Capa_1" x="0px" y="0px" viewBox="0 0 511.926 511.926" style="enable-background:new 0 0 511.926 511.926;" xml:space="preserve" width="512" height="512">
<g>
	<g>
		<path d="M271.399,511.926c-0.363,0-0.729-0.026-1.094-0.08c-2.765-0.407-5.074-2.318-5.992-4.959    c-14.706-42.334-47.051-48.216-48.42-48.446c-2.874-0.481-5.229-2.587-6.009-5.395c-0.779-2.807,0.117-5.815,2.331-7.709    c0.045-0.039,4.588-3.926,10.752-9.433c3.088-2.76,7.83-2.494,10.59,0.596c2.76,3.089,2.493,7.83-0.596,10.59    c-0.359,0.321-0.712,0.636-1.059,0.944c12.002,5.365,29.336,16.914,41.268,41.161l46.925-64.784l-0.696-32.324    c-0.036-1.668,0.486-3.3,1.482-4.639c1.352-1.817,32.463-42.635,90.859-38.772c1.152-10.168,5.546-26.792,21.412-36.966    l-0.743-13.369c-0.109-1.958,0.553-3.879,1.844-5.355l5.336-6.098l3.826-55.479c0.122-1.764,0.863-3.429,2.093-4.699    c0.294-0.304,29.353-30.394,45.932-52.668c1.689-4.03,2.419-15.072-4.988-31.946c-2.592,0.114-5.871-0.011-9.759-0.679    c-9.512-1.634-6.99-16.419,2.539-14.783c5.541,0.951,8.924,0.247,9.453,0.122c3.562-1.263,7.226,0.426,8.92,3.815    c16.324,32.647,7.827,49.286,6.804,51.075c-0.146,0.255-0.306,0.501-0.48,0.737c-14.813,20.042-38.786,45.494-45.736,52.772    l-3.813,55.286c-0.113,1.635-0.758,3.189-1.838,4.423l-4.986,5.698l0.83,14.947c0.166,2.987-1.458,5.787-4.134,7.124    c-19.113,9.557-17.93,32.821-17.87,33.807c0.135,2.237-0.735,4.434-2.376,5.96c-1.641,1.526-3.882,2.254-6.099,1.959    c-47.971-6.393-76.703,22.453-83.451,30.183l0.689,32.065c0.036,1.635-0.465,3.236-1.424,4.561l-56.249,77.656    C276.049,510.789,273.781,511.926,271.399,511.926z"/>
	</g>
	<g>
		<path d="M257.085,420.926c-6.43,0-9.802-7.824-5.569-12.521c4.121-4.572,5.362-6.627,5.699-7.281    c1.223-11.664-0.187-20.094-3.888-23.172c-2.794-2.324-6.871-1.289-6.91-1.276c-1.953,0.591-4.061,0.362-5.841-0.636    c-1.779-0.998-3.076-2.677-3.59-4.65l-4.47-17.15l-19.882-1.531c-4.152-0.32-7.36-4.208-6.873-8.354l5.333-45.375l-6.452-5.166    c-1.664-1.333-2.682-3.31-2.8-5.439l-0.674-12.145l-22.024-6.298c-2.08-0.595-3.802-2.059-4.723-4.016    c-0.922-1.957-0.954-4.217-0.087-6.199c2.283-5.223,0.839-7.951,0.365-8.848c-2.132-4.03-8.344-7.451-16.212-8.928    c-31.219-5.859-38.91-25.68-40.644-37.689c-13.505,2.942-24.086,10.941-24.21,11.036c-1.513,1.159-3.413,1.696-5.306,1.507    l-29.095-2.912c-3.393-0.34-6.13-2.926-6.661-6.294l-1.192-7.558l-6.99,4.116c-2.95,1.735-6.699,1.256-9.115-1.167L6.587,174.222    c-1.606-1.611-2.396-3.864-2.144-6.125c3.316-29.848,25.947-47.405,26.909-48.138c1.419-1.082,3.174-1.619,4.959-1.523    l27.217,1.505l4.944-26.158l-7.651-9.956c-1.063-1.384-1.611-3.094-1.548-4.838l0.97-27.18c0.137-3.849,3.168-6.969,7.012-7.217    l30.064-1.941c2.141-0.132,4.231,0.644,5.755,2.149s2.331,3.59,2.218,5.729c-0.073,1.888,0.425,6.526,2.45,8.504    c0.354,0.347,1.302,1.266,4.139,1.09c6.444-0.403,13.978-5.09,19.617-9.504c-2.255-1.964-4.093-4.287-5.464-6.929    c-5.387-10.377-1.828-21.832-1.404-23.104c1.205-3.617,4.935-5.754,8.662-4.969c31.664,6.669,45.535-12.332,45.671-12.525    c3.508-4.957,11.43-3.728,13.27,2.061l6.789,21.355c0.626,1.969,0.412,4.11-0.592,5.917c-6.806,12.242-1.679,17.964,1.984,20.286    c7.949,5.039,19.274-0.823,24.308-3.972l0.703-8.437c0.298-3.575,3.085-6.438,6.651-6.832l13.286-1.467    c3.87-0.432,7.376,1.971,8.136,5.783c0.167,0.614,1.7,5.759,7,8.707c1.239,0.69,2.224,0.779,3.508,0.319    c6.517-2.329,14.375-15.827,17.874-24.668c2.428-6.136,11.45-6.192,13.93-0.056c13.444,33.277,23.879,40.693,25.577,41.722    c2.902,0.579,4.271,2.668,4.866,5.645l1.114,5.572l2.02-2.188c1.908-2.066,4.811-2.891,7.519-2.14l36,10    c2.098,0.583,3.839,2.048,4.771,4.016l4.856,10.252l4.564-3.804c1.542-1.285,3.534-1.898,5.533-1.703    c1.998,0.196,3.834,1.185,5.098,2.745c12.261,15.148,27.49,6.41,29.187,5.365c3.063-1.949,7.04-1.398,9.5,1.274    c2.54,2.757,5.118,5.36,7.664,7.735c7.058,6.583-3.162,17.564-10.231,10.969c-1.516-1.414-3.039-2.897-4.557-4.438    c-9.774,3.939-24.903,5.494-37.955-5.954l-6.637,5.53c-3.67,3.059-9.526,1.785-11.579-2.551l-7.533-15.902l-28.285-7.856    l-8.894,9.635c-4.076,4.415-11.687,2.276-12.866-3.616l-3.325-16.623c-5.227-3.621-13.76-12.353-23.853-33.354    c-4.654,7.525-11.263,15.634-19.294,18.513c-5.361,1.922-10.847,1.462-15.865-1.328c-6.145-3.417-9.761-8.203-11.828-12.068    l-1.519,0.167l-0.487,5.846c-0.174,2.093-1.219,4.017-2.879,5.304c-0.999,0.775-24.696,18.835-44.111,6.527    c-9.524-6.038-17.099-19.268-8.591-37.272l-2.243-7.055c-7.313,5.348-18.887,11.006-35.112,11.007    c-2.651,0-5.424-0.151-8.325-0.479c0.072,1.779,0.417,3.647,1.267,5.256c1.269,2.401,3.603,4.084,7.133,5.145    c2.491,0.748,4.417,2.733,5.088,5.245c0.672,2.512-0.005,5.194-1.79,7.085c-1.896,2.009-19.037,19.659-36.991,20.782    c-7.912,0.492-12.876-2.674-15.648-5.42c-3.465-3.43-5.2-7.804-6.061-11.59l-16.117,1.041l-0.632,17.702l8.053,10.479    c1.302,1.694,1.819,3.864,1.423,5.963l-6.789,35.916c-0.699,3.696-4.011,6.3-7.784,6.096l-30.765-1.701    c-4.515,4.167-15.554,15.837-18.638,32.708l21.927,21.982l11.477-6.757c2.139-1.26,4.762-1.378,7.007-0.319    c2.245,1.06,3.819,3.162,4.206,5.614l2.007,12.726l20.564,2.058c5.741-3.828,20.491-12.487,37.532-13.34    c2.23-0.113,4.381,0.771,5.89,2.408s2.212,3.859,1.92,6.066c-0.282,2.456-1.932,24.694,28.861,30.473    c12.625,2.369,22.358,8.44,26.705,16.656c1.693,3.2,3.173,7.838,2.439,13.693l20.026,5.727c3.071,0.878,5.25,3.606,5.426,6.795    l0.784,14.127l7.083,5.672c2.019,1.617,3.063,4.161,2.761,6.73l-4.908,41.752L239,339.694c3.191,0.246,5.875,2.489,6.682,5.586    l4.218,16.185c3.895,0.188,8.67,1.339,13.018,4.954c8.045,6.69,11.123,19.109,9.146,36.911c-0.355,3.205-2.091,7.002-9.405,15.117    C261.178,420.09,259.135,420.926,257.085,420.926z M321.627,63.947L321.627,63.947L321.627,63.947z"/>
	</g>
	<g>
		<path d="M66.463,280.426h-59c-9.652,0-9.668-15,0-15h59C76.115,265.426,76.131,280.426,66.463,280.426z"/>
	</g>
	<g>
		<path d="M408.463,486.426h-59c-9.652,0-9.668-15,0-15h59C418.115,471.426,418.131,486.426,408.463,486.426z"/>
	</g>
	<g>
		<path d="M475.463,429.426h-59c-9.652,0-9.668-15,0-15h59C485.115,414.426,485.131,429.426,475.463,429.426z"/>
	</g>
	<g>
		<g>
			<path d="M58.463,429.426h-26c-9.652,0-9.668-15,0-15h26C68.115,414.426,68.131,429.426,58.463,429.426z"/>
		</g>
		<g>
			<path d="M169.463,429.426h-70c-9.652,0-9.668-15,0-15h70C179.115,414.426,179.131,429.426,169.463,429.426z"/>
		</g>
	</g>
	<g>
		<g>
			<path d="M504.463,46.426h-26c-9.652,0-9.668-15,0-15h26C514.115,31.426,514.131,46.426,504.463,46.426z"/>
		</g>
		<g>
			<path d="M437.463,46.426h-70c-9.652,0-9.668-15,0-15h70C447.115,31.426,447.131,46.426,437.463,46.426z"/>
		</g>
	</g>
	<g>
		<path d="M178.463,353.426h-114c-9.652,0-9.668-15,0-15h114C188.115,338.426,188.131,353.426,178.463,353.426z"/>
	</g>
</g>















</svg>
