<svg id="Capa_1" enable-background="new 0 0 512 512" height="512" viewBox="0 0 512 512" width="512" xmlns="http://www.w3.org/2000/svg"><g><path d="m354.713 344.308 11.736-11.735c2.863-2.863 4.44-6.67 4.44-10.719s-1.577-7.856-4.439-10.719l-10.901-10.9c3.756-6.55 6.638-13.503 8.612-20.777h15.41c8.358 0 15.158-6.8 15.158-15.159v-16.597c0-8.359-6.8-15.159-15.158-15.159h-15.41c-1.975-7.274-4.856-14.227-8.612-20.777l10.9-10.9c2.863-2.863 4.44-6.67 4.44-10.719s-1.577-7.856-4.44-10.719l-11.735-11.736c-5.91-5.909-15.527-5.911-21.438 0l-10.901 10.9c-6.549-3.755-13.501-6.637-20.776-8.611v-15.41c0-8.358-6.801-15.159-15.159-15.159h-16.597c-8.358 0-15.159 6.8-15.159 15.159v15.41c-7.275 1.975-14.228 4.856-20.776 8.611l-10.9-10.899c-2.862-2.864-6.669-4.441-10.719-4.441-4.049 0-7.856 1.577-10.72 4.44l-11.734 11.735c-2.863 2.863-4.44 6.67-4.44 10.719s1.577 7.856 4.439 10.719l10.9 10.9c-3.756 6.549-6.637 13.501-8.611 20.777h-15.41c-8.358 0-15.159 6.8-15.159 15.159v16.597c0 8.359 6.801 15.159 15.159 15.159h15.41c1.975 7.275 4.855 14.228 8.611 20.777l-10.899 10.9c-2.863 2.863-4.44 6.67-4.44 10.719s1.577 7.856 4.439 10.719l11.735 11.736c2.863 2.863 6.671 4.44 10.72 4.44 4.05 0 7.856-1.577 10.719-4.44l10.9-10.9c6.549 3.755 13.501 6.637 20.776 8.611v15.41c0 8.358 6.801 15.159 15.159 15.159h16.597c8.358 0 15.159-6.8 15.159-15.159v-15.41c7.275-1.975 14.228-4.856 20.776-8.611l10.9 10.9c5.912 5.91 15.529 5.912 21.438 0zm-35.405-26.638c-8.128 5.438-17.101 9.156-26.667 11.052-3.512.696-6.042 3.777-6.042 7.357v21.351c0 .087-.071.159-.159.159h-16.597c-.088 0-.159-.071-.159-.159v-21.351c0-3.58-2.53-6.661-6.042-7.357-9.566-1.896-18.539-5.615-26.667-11.052-1.271-.85-2.724-1.266-4.168-1.266-1.935 0-3.855.747-5.305 2.197l-15.103 15.102c-.053.052-.171.051-.224-.001l-11.736-11.736c-.053-.053-.053-.171.001-.224l15.101-15.102c2.531-2.531 2.92-6.498.93-9.474-5.437-8.127-9.155-17.099-11.052-26.667-.695-3.512-3.776-6.042-7.356-6.042h-21.351c-.088 0-.159-.071-.159-.159v-16.597c0-.088.071-.159.159-.159h21.351c3.58 0 6.661-2.53 7.356-6.042 1.896-9.567 5.615-18.539 11.052-26.667 1.99-2.976 1.602-6.942-.93-9.474l-15.102-15.102c-.053-.053-.053-.171.001-.224l11.735-11.736c.053-.052.171-.053.224 0l15.103 15.101c2.53 2.531 6.499 2.92 9.473.931 8.128-5.438 17.101-9.156 26.667-11.052 3.512-.696 6.042-3.777 6.042-7.357v-21.35c0-.087.071-.159.159-.159h16.597c.088 0 .159.071.159.159v21.351c0 3.58 2.53 6.661 6.042 7.357 9.566 1.896 18.539 5.615 26.667 11.052 2.976 1.989 6.942 1.602 9.473-.931l15.103-15.101c.061-.063.162-.061.225 0l11.736 11.736c.053.053.053.171-.001.224l-15.102 15.102c-2.531 2.531-2.92 6.498-.93 9.474 5.438 8.129 9.156 17.101 11.051 26.666.696 3.512 3.777 6.042 7.357 6.042h21.352c.087 0 .158.071.158.159v16.597c0 .088-.071.159-.158.159h-21.352c-3.58 0-6.661 2.531-7.357 6.042-1.895 9.565-5.612 18.537-11.051 26.666-1.99 2.976-1.602 6.942.93 9.474l15.103 15.102c.053.053.053.171 0 .224l-11.737 11.736c-.062.062-.164.06-.225 0l-15.102-15.101c-2.531-2.531-6.501-2.92-9.473-.93z"/><path d="m278.142 230.003c9.277 0 17.919 5.003 22.553 13.056 2.065 3.59 6.651 4.826 10.241 2.76 3.591-2.066 4.826-6.651 2.761-10.241-7.303-12.691-20.927-20.575-35.555-20.575-22.605 0-40.997 18.391-40.997 40.997s18.392 40.997 40.997 40.997c14.456 0 27.566-7.386 35.071-19.758 2.148-3.542 1.02-8.154-2.522-10.302s-8.155-1.02-10.302 2.523c-4.763 7.851-13.079 12.538-22.247 12.538-14.335 0-25.997-11.662-25.997-25.997s11.662-25.998 25.997-25.998z"/><path d="m340.568 80.52c51.308 18.31 91.946 57.988 111.496 108.86 2.101 5.469 7.458 9.143 13.331 9.143h17.215c4.628 0 8.989-2.254 11.668-6.029 2.679-3.776 3.364-8.638 1.835-13.006-11.462-32.733-29.869-61.92-54.709-86.75-26.105-26.105-56.908-45.056-91.554-56.327-4.352-1.416-9.155-.656-12.854 2.03-3.692 2.681-5.896 7.006-5.896 11.568v17.06c0 6.023 3.804 11.43 9.468 13.451zm5.532-29.555c32.014 10.566 60.505 28.185 84.697 52.378.001 0 .001.001.002.001 23 22.991 40.1 49.964 50.833 80.178h-15.75c-21.128-54.572-64.74-97.153-119.782-116.954z"/><path d="m485.555 304.429h-16.924c-6.18 0-11.634 3.945-13.571 9.815-17.894 54.207-60.688 98.031-114.474 117.23-5.674 2.026-9.486 7.434-9.486 13.458v17.06c.193 8.498 8.455 16.821 18.751 13.598 34.646-11.271 65.448-30.222 91.554-56.327 26.99-26.99 46.995-60.328 57.85-96.407 1.316-4.375.508-8.988-2.219-12.656-2.728-3.668-6.912-5.771-11.481-5.771zm-54.758 104.228c-24.192 24.193-52.684 41.811-84.697 52.378v-15.603c57.729-20.771 103.67-67.817 123.044-126.003h15.476c-10.205 33.371-28.802 64.207-53.823 89.228z"/><path d="m215.695 431.474c-45.106-16.1-81.935-48.548-103.701-91.367-3.232-6.358-10.724-9.398-17.434-7.067h.001c-4.426 1.537-9.017 2.693-13.644 3.438-4.521.726-8.325 3.472-10.438 7.532-2.103 4.042-2.168 8.709-.181 12.802 11.189 23.049 26.188 44.061 44.578 62.452 26.105 26.105 56.908 45.056 91.554 56.327 7.512 2.871 18.965-3.358 18.752-13.598v-17.06c.002-6.026-3.812-11.434-9.487-13.459zm-5.511 29.561c-32.014-10.566-60.506-28.185-84.698-52.378-16.974-16.974-30.854-36.323-41.265-57.523 4.969-.85 9.894-2.099 14.663-3.719 23.467 45.852 62.96 80.63 111.3 98.018z"/><path d="m266.411 82.117h25.982c10.312 0 18.701-8.389 18.701-18.701v-25.983c0-10.312-8.39-18.701-18.701-18.701h-25.982c-10.312 0-18.701 8.389-18.701 18.701v25.982c0 10.313 8.39 18.702 18.701 18.702zm-3.701-44.684c0-2.041 1.66-3.701 3.701-3.701h25.982c2.041 0 3.701 1.66 3.701 3.701v25.982c0 2.041-1.66 3.701-3.701 3.701h-25.982c-2.041 0-3.701-1.66-3.701-3.701z"/><path d="m292.394 429.883h-25.982c-10.312 0-18.701 8.389-18.701 18.701v25.982c0 10.312 8.39 18.701 18.701 18.701h25.982c10.312 0 18.701-8.389 18.701-18.701v-25.982c0-10.312-8.39-18.701-18.701-18.701zm3.701 44.684c0 2.041-1.66 3.701-3.701 3.701h-25.982c-2.041 0-3.701-1.66-3.701-3.701v-25.982c0-2.041 1.66-3.701 3.701-3.701h25.982c2.041 0 3.701 1.66 3.701 3.701z"/><path d="m493.299 218.114h-25.982c-10.312 0-18.701 8.39-18.701 18.702v25.982c0 10.312 8.39 18.702 18.701 18.702h25.982c10.312 0 18.701-8.39 18.701-18.702v-25.982c0-10.313-8.39-18.702-18.701-18.702zm3.701 44.683c0 2.041-1.66 3.702-3.701 3.702h-25.982c-2.041 0-3.701-1.661-3.701-3.702v-25.982c0-2.041 1.66-3.702 3.701-3.702h25.982c2.041 0 3.701 1.661 3.701 3.702z"/><path d="m43.222 251.448c-2.93 2.929-2.93 7.677-.001 10.606l12.409 12.41c1.407 1.407 3.314 2.197 5.304 2.197s3.896-.79 5.304-2.197l26.321-26.321c2.929-2.929 2.929-7.678 0-10.606-2.93-2.929-7.678-2.929-10.607 0l-21.018 21.018-7.105-7.106c-2.93-2.93-7.679-2.931-10.607-.001z"/><path d="m135.779 256c0-30.042-20.133-56.859-48.96-65.213-3.975-1.152-8.139 1.137-9.291 5.116-1.153 3.979 1.137 8.139 5.115 9.292 22.454 6.507 38.136 27.4 38.136 50.806 0 29.164-23.727 52.89-52.89 52.89s-52.889-23.727-52.889-52.891c0-23.292 14.926-43.589 37.142-50.508 3.954-1.231 6.162-5.436 4.931-9.391-1.232-3.954-5.431-6.166-9.392-4.931-28.52 8.882-47.681 34.935-47.681 64.83 0 37.435 30.455 67.89 67.89 67.89s67.889-30.455 67.889-67.89z"/><path d="m146.301 57.924h57.05l-10.497 10.496c-2.929 2.929-2.929 7.678 0 10.606 1.465 1.464 3.385 2.197 5.304 2.197s3.839-.732 5.304-2.197l23.299-23.299c2.562-2.49 3.221-7.45 0-10.606l-23.299-23.299c-2.93-2.929-7.678-2.929-10.607 0s-2.929 7.678 0 10.606l10.496 10.496h-57.05c-4.143 0-7.5 3.358-7.5 7.5s3.357 7.5 7.5 7.5z"/></g></svg>