<svg height="512pt" viewBox="0 0 512 512" width="512pt" xmlns="http://www.w3.org/2000/svg"><path d="m512 416c0-11.21875-4.367188-21.765625-12.300781-29.699219l-199.566407-199.566406 32.167969-32.164063c4.84375 2.574219 10.273438 3.941407 15.914063 3.941407 9.082031 0 17.621094-3.539063 24.042968-9.960938 6.421876-6.421875 9.957032-14.957031 9.957032-24.039062s-3.535156-17.621094-9.957032-24.042969l-90.511718-90.507812c-6.421875-6.425782-14.960938-9.960938-24.042969-9.960938-9.078125 0-17.617187 3.535156-24.039063 9.957031-6.421874 6.421875-9.960937 14.960938-9.960937 24.042969 0 5.640625 1.367187 11.074219 3.941406 15.917969l-123.738281 123.738281c-12.839844-6.789062-29.148438-4.789062-39.949219 6.007812-13.253906 13.257813-13.253906 34.828126 0 48.082032l90.511719 90.511718c6.628906 6.628907 15.335938 9.941407 24.042969 9.941407s17.410156-3.3125 24.039062-9.941407c10.796875-10.796874 12.796875-27.105468 6.007813-39.949218l32.175781-32.175782 35.113281 35.113282c.003906 0 .003906.003906.007813.007812 0 0 .003906.003906.003906.003906l164.441406 164.441407c7.933594 7.933593 18.480469 12.300781 29.699219 12.300781s21.765625-4.367188 29.699219-12.300781c7.933593-7.933594 12.300781-18.480469 12.300781-29.699219zm-264.191406-391.898438c2.640625-2.644531 6.15625-4.101562 9.894531-4.101562 3.742187 0 7.257813 1.457031 9.902344 4.101562l90.507812 90.507813c2.644531 2.644531 4.101563 6.160156 4.101563 9.902344 0 3.738281-1.457032 7.253906-4.101563 9.898437-2.644531 2.644532-6.160156 4.101563-9.898437 4.101563-3.738282 0-7.253906-1.457031-9.898438-4.101563l-90.507812-90.511718c-2.648438-2.644532-4.105469-6.160157-4.105469-9.898438s1.457031-7.253906 4.105469-9.898438zm-7.074219 41.011719 76.367187 76.367188-38.175781 38.179687c-.003906 0-.003906 0-.007812.003906l-45.253907 45.253907c0 .003906-.003906.003906-.003906.007812l-38.179687 38.175781-76.367188-76.367187zm-52.324219 239c-5.457031 5.460938-14.339844 5.460938-19.800781 0l-90.507813-90.507812c-5.460937-5.457031-5.460937-14.339844 0-19.796875 2.726563-2.730469 6.3125-4.09375 9.898438-4.09375s7.171875 1.363281 9.898438 4.09375l90.507812 90.507812c.003906 0 .003906 0 .003906.003906 5.457032 5.457032 5.457032 14.335938 0 19.792969zm97.582032-103.234375 28.046874 28.046875-31.113281 31.109375-28.046875-28.046875zm199.5625 230.675782c-4.15625 4.15625-9.679688 6.445312-15.554688 6.445312s-11.398438-2.289062-15.554688-6.445312l-157.378906-157.375 31.113282-31.113282 157.375 157.378906c4.15625 4.152344 6.445312 9.679688 6.445312 15.554688s-2.289062 11.402344-6.445312 15.554688zm0 0"/><path d="m350.667969 404h-14.667969v-19.667969c0-20.03125-16.300781-36.332031-36.332031-36.332031h-219.335938c-20.03125 0-36.332031 16.300781-36.332031 36.332031v19.667969h-14.667969c-16.171875 0-29.332031 13.160156-29.332031 29.332031v68.667969c0 5.523438 4.476562 10 10 10h360c5.523438 0 10-4.476562 10-10v-68.667969c0-16.171875-13.160156-29.332031-29.332031-29.332031zm9.332031 88h-340v-58.667969c0-5.144531 4.1875-9.332031 9.332031-9.332031h115.667969c5.523438 0 10-4.476562 10-10s-4.476562-10-10-10h-81v-19.667969c0-9.003906 7.328125-16.332031 16.332031-16.332031h219.335938c9.003906 0 16.332031 7.328125 16.332031 16.332031v19.667969h-80.996094c-5.523437 0-10 4.476562-10 10s4.476563 10 10 10h115.664063c5.144531 0 9.332031 4.1875 9.332031 9.332031zm0 0"/><path d="m190 404c-2.628906 0-5.210938 1.070312-7.070312 2.929688-1.859376 1.859374-2.929688 4.441406-2.929688 7.070312s1.070312 5.210938 2.929688 7.070312c1.859374 1.859376 4.441406 2.929688 7.070312 2.929688s5.210938-1.070312 7.070312-2.929688c1.859376-1.859374 2.929688-4.441406 2.929688-7.070312 0-2.640625-1.070312-5.210938-2.929688-7.070312-1.859374-1.859376-4.441406-2.929688-7.070312-2.929688zm0 0"/></svg>