<?xml version="1.0" encoding="iso-8859-1"?>
<!-- Generator: Adobe Illustrator 19.0.0, SVG Export Plug-In . SVG Version: 6.00 Build 0)  -->
<svg version="1.1" id="Capa_1" xmlns="http://www.w3.org/2000/svg" xmlns:xlink="http://www.w3.org/1999/xlink" x="0px" y="0px"
	 viewBox="0 0 512 512" style="enable-background:new 0 0 512 512;" xml:space="preserve">
<g>
	<g>
		<path d="M506.022,207.835l-75.569-63.746V51.915c0-5.523-4.477-10-10-10h-60.719c-5.523,0-10,4.477-10,10V76L262.447,2.367
			c-3.725-3.142-9.171-3.142-12.896,0L5.978,207.835c-5.442,4.59-7.379,11.877-4.936,18.562c2.444,6.687,8.623,11.008,15.741,11.008
			h37.224v214.524H30.009c-5.523,0-10,4.478-10,10v40.061c0,5.522,4.477,10,10,10h318.233c5.523,0,10-4.478,10-10s-4.477-10-10-10
			H40.008v-20.062h23.999h383.984h23.999v20.062h-44.498c-5.523,0-10,4.478-10,10s4.477,10,10,10h54.498c5.523,0,10-4.478,10-10
			v-40.061c0-5.522-4.477-10-10-10h-23.999V237.405h37.224c7.119,0,13.297-4.321,15.741-11.008
			C513.402,219.711,511.464,212.425,506.022,207.835z M369.736,61.915h40.719v65.304L369.736,92.87V61.915z M437.992,451.93H114.005
			v-62.435c0-5.522-4.477-10-10-10s-10,4.478-10,10v62.435H74.007V237.405h5.211c2.36,0,4.644-0.834,6.448-2.356L255.999,91.363
			l170.334,143.685c1.804,1.522,4.088,2.356,6.448,2.356h5.211V451.93z M436.435,217.406L262.447,70.638
			c-3.725-3.142-9.171-3.142-12.896,0L75.565,217.406H25.648L255.999,23.092l230.352,194.314H436.435z"/>
	</g>
</g>
<g>
	<g>
		<path d="M297.327,219.923c-4.809-2.716-10.909-1.018-13.623,3.792L191,387.926c-2.715,4.81-1.018,10.909,3.792,13.623
			c1.554,0.877,3.241,1.294,4.907,1.294c3.49,0,6.879-1.83,8.717-5.086l92.703-164.211
			C303.833,228.737,302.135,222.638,297.327,219.923z"/>
	</g>
</g>
<g>
	<g>
		<path d="M316.243,326.22c-23.158,0-41.998,18.84-41.998,41.998c0,23.158,18.84,41.998,41.998,41.998s41.998-18.84,41.998-41.998
			C358.241,345.06,339.401,326.22,316.243,326.22z M316.243,390.217c-12.13,0-21.999-9.869-21.999-21.999
			s9.869-21.999,21.999-21.999s21.999,9.869,21.999,21.999S328.373,390.217,316.243,390.217z"/>
	</g>
</g>
<g>
	<g>
		<path d="M195.757,193.336c-23.158,0-41.998,18.84-41.998,41.998c0,23.158,18.84,41.998,41.998,41.998
			c23.158,0,41.998-18.84,41.998-41.998C237.755,212.176,218.915,193.336,195.757,193.336z M195.757,257.333
			c-12.13,0-21.999-9.87-21.999-21.999c0-12.13,9.869-21.999,21.999-21.999s21.999,9.869,21.999,21.999
			C217.756,247.464,207.887,257.333,195.757,257.333z"/>
	</g>
</g>
<g>
	<g>
		<path d="M397.064,494.92c-1.86-1.86-4.44-2.93-7.07-2.93s-5.21,1.069-7.07,2.93c-1.86,1.86-2.93,4.44-2.93,7.07
			c0,2.63,1.07,5.21,2.93,7.069c1.86,1.86,4.44,2.931,7.07,2.931s5.21-1.07,7.07-2.931c1.86-1.859,2.93-4.439,2.93-7.069
			C399.993,499.36,398.923,496.78,397.064,494.92z"/>
	</g>
</g>
<g>
	<g>
		<path d="M111.075,347.926c-1.86-1.86-4.44-2.93-7.07-2.93s-5.21,1.069-7.07,2.93c-1.86,1.86-2.93,4.44-2.93,7.07
			c0,2.63,1.07,5.21,2.93,7.069c1.86,1.86,4.44,2.931,7.07,2.931s5.21-1.07,7.07-2.931c1.86-1.859,2.93-4.439,2.93-7.069
			C114.005,352.366,112.935,349.786,111.075,347.926z"/>
	</g>
</g>
<g>
</g>
<g>
</g>
<g>
</g>
<g>
</g>
<g>
</g>
<g>
</g>
<g>
</g>
<g>
</g>
<g>
</g>
<g>
</g>
<g>
</g>
<g>
</g>
<g>
</g>
<g>
</g>
<g>
</g>
</svg>
