<svg id="Layer_1" enable-background="new 0 0 512.002 512.002" height="512" viewBox="0 0 512.002 512.002" width="512" xmlns="http://www.w3.org/2000/svg"><g><g><path d="m463.072 102.929-100-100c-1.876-1.875-4.419-2.929-7.071-2.929h-239.999c-16.542 0-29.999 13.458-29.999 30v10.001h-.001-10.001c-16.542 0-30 13.458-30 30v412.001c0 16.542 13.458 30 30 30h319.999c16.542 0 30-13.458 30-30v-10.001-.001h10.002c16.542 0 29.999-13.458 29.999-30v-332c0-2.652-1.054-5.195-2.929-7.071zm-97.071-68.786 65.857 65.857h-55.857c-5.514 0-10-4.486-10-10zm80 407.857c0 5.514-4.485 10-9.999 10h-320c-5.514 0-9.999-4.486-9.999-10v-241.999c0-5.522-4.478-10-10-10s-10 4.478-10 10v241.999c0 16.542 13.457 30 29.999 30h289.998v.001 10.001c0 5.514-4.486 10-10 10h-319.999c-5.514 0-10-4.486-10-10v-412.001c0-5.514 4.486-10 10-10h10.001.001v50c0 5.522 4.478 10 10 10s10-4.478 10-10v-80.001c0-5.514 4.485-10 9.999-10h229.999v70c0 16.542 13.458 30 30 30h70z"/><path d="m315.998 100h-159.993c-5.522 0-10 4.478-10 10s4.478 10 10 10h159.993c5.522 0 10-4.478 10-10s-4.477-10-10-10z"/><path d="m315.998 197.333h-159.993c-5.522 0-10 4.478-10 10s4.478 10 10 10h159.993c5.522 0 10-4.478 10-10s-4.477-10-10-10z"/><path d="m156.005 265.999h79.996c5.522 0 10-4.478 10-10s-4.478-10-10-10h-79.996c-5.522 0-10 4.478-10 10s4.477 10 10 10z"/><path d="m156.005 314.665h79.996c5.522 0 10-4.478 10-10s-4.478-10-10-10h-79.996c-5.522 0-10 4.478-10 10s4.477 10 10 10z"/><path d="m294.008 343.331h-138.003c-5.522 0-10 4.478-10 10s4.478 10 10 10h138.003c5.522 0 10-4.478 10-10s-4.478-10-10-10z"/><path d="m285.289 391.998h-129.284c-5.522 0-10 4.478-10 10s4.478 10 10 10h129.284c5.522 0 10-4.478 10-10s-4.477-10-10-10z"/><path d="m156.005 71.334h79.996c5.522 0 10-4.478 10-10s-4.478-10-10-10h-79.996c-5.522 0-10 4.478-10 10s4.477 10 10 10z"/><path d="m96.003 145c-5.522 0-10 4.481-10 10.004s4.478 10 10 10 10-4.478 10-10v-.008c0-5.522-4.478-9.996-10-9.996z"/></g></g></svg>