<svg id="Capa_1" enable-background="new 0 0 512.002 512.002" height="512" viewBox="0 0 512.002 512.002" width="512" xmlns="http://www.w3.org/2000/svg"><g id="XMLID_1157_"><g id="XMLID_1372_"><path id="XMLID_420_" d="m275.402 512.002c-2.047 0-4.104-.626-5.869-1.907l-55.119-40c-2.233-1.621-3.698-4.092-4.047-6.829s.449-5.497 2.204-7.625l37.165-45.077-23.704-47.188-15.982-1.598c-5.112-.511-9.005-4.812-9.005-9.95v-57.427l-21.703-12.153c-2.144-1.201-3.772-3.15-4.571-5.474l-10.146-29.515-36.972-11.376c-2.393-.736-4.421-2.342-5.687-4.5l-13.768-23.486-30.502 13.133c-3.2 1.377-6.883.991-9.727-1.019l-54.898-38.795c-2.651-1.874-4.228-4.919-4.228-8.167v-39.331c0-4.746 3.336-8.838 7.984-9.795l40.658-8.368v-56.567c0-5.523 4.478-10 10-10h30.569c1.484 0 2.95.331 4.291.967l8.748 4.156 16.65-12.898v-16.193c0-4.347 2.808-8.195 6.947-9.523l46.84-15.018c4.52-1.452 9.432.477 11.763 4.609l7.866 13.945c.846 1.499 1.29 3.191 1.29 4.913v26.607l.808.808 41.609-16.674c1.183-.474 2.445-.718 3.72-.718h22.598l13.445-17.538c2.055-2.68 5.326-4.143 8.691-3.888 3.368.255 6.38 2.193 8.007 5.152l11.8 21.454c.812 1.477 1.238 3.134 1.238 4.819v17.062l19.682 11.177c4.802 2.728 6.484 8.832 3.757 13.634-2.728 4.802-8.831 6.482-13.634 3.757l-24.741-14.048c-3.129-1.777-5.061-5.098-5.061-8.696v-20.315l-3.182-5.784-7.129 9.299c-1.893 2.469-4.826 3.916-7.937 3.916h-25.604l-45.942 18.411c-3.714 1.49-7.96.62-10.79-2.211l-8.403-8.402c-1.876-1.875-2.93-4.419-2.93-7.071v-28.124l-2.572-4.56-32.134 10.303v13.8c0 3.093-1.431 6.011-3.876 7.905l-25.387 19.666c-2.981 2.311-7.008 2.745-10.415 1.127l-12.266-5.827h-18.314v54.718c0 4.746-3.336 8.838-7.984 9.794l-40.658 8.369v26.001l46.092 32.572 33.468-14.41c4.639-1.995 10.031-.225 12.582 4.128l16.268 27.751 38.115 11.728c3.056.94 5.477 3.284 6.517 6.307l10.559 30.716 23.487 13.152c3.158 1.769 5.114 5.105 5.114 8.725v54.238l12.448 1.245c3.407.34 6.403 2.401 7.94 5.461l29.099 57.925c1.778 3.539 1.3 7.794-1.22 10.85l-34.544 41.897 39.434 28.617 42.691-44.774v-48.191c0-3.942 2.315-7.516 5.913-9.127l69.838-31.271 43.315-50.207v-64.931c0-2.365.839-4.654 2.366-6.46l44.832-52.983v-26.929l-41.934-33.547-26.729-.954c-.919-.033-1.828-.192-2.704-.473l-.328-.105c-5.258-1.69-8.149-7.323-6.46-12.581 1.548-4.814 6.399-7.648 11.247-6.791l28.993 1.035c2.147.077 4.213.843 5.891 2.185l48.271 38.617c2.372 1.898 3.753 4.771 3.753 7.809v35.398c0 2.365-.838 4.654-2.366 6.46l-44.832 52.983v64.988c0 2.398-.861 4.716-2.429 6.532l-47.197 54.707c-.957 1.11-2.147 1.996-3.484 2.595l-65.956 29.532v45.716c0 2.57-.989 5.041-2.763 6.901l-51.488 54c-1.952 2.044-4.588 3.097-7.242 3.097z"/></g><g id="XMLID_1368_"><path id="XMLID_419_" d="m371.661 105.572c-2.63 0-5.21-1.07-7.07-2.93s-2.93-4.44-2.93-7.07 1.069-5.21 2.93-7.07c1.86-1.86 4.441-2.93 7.07-2.93 2.63 0 5.21 1.07 7.069 2.93 1.86 1.86 2.931 4.44 2.931 7.07s-1.07 5.21-2.931 7.07c-1.859 1.86-4.439 2.93-7.069 2.93z"/></g></g></svg>