<svg id="Capa_1" enable-background="new 0 0 512 512" height="512" viewBox="0 0 512 512" width="512" xmlns="http://www.w3.org/2000/svg"><g><g><path d="m481.359 90.322-241.828-89.698c-3.07-1.139-6.501-.702-9.188 1.167-2.688 1.869-4.29 4.936-4.29 8.209v123.063l-195.994 87.059c-3.612 1.604-5.94 5.186-5.94 9.139v272.739c0 5.523 4.477 10 10 10h443.763c5.523 0 10-4.477 10-10v-402.302c0-4.182-2.602-7.922-6.523-9.376zm-437.24 362.932h181.934v38.746h-181.934zm127.805-20h-73.677v-59.208h73.677zm159.247 58.746v-92.461h51.592v92.461zm136.711 0h-21.874v-58.182c0-5.523-4.477-10-10-10s-10 4.477-10 10v58.182h-23.245v-102.461c0-5.523-4.477-10-10-10h-71.592c-5.523 0-10 4.477-10 10v102.461h-23.247v-58.182c0-5.523-4.477-10-10-10s-10 4.477-10 10v58.182h-21.871v-151.166c0-5.523-4.477-10-10-10s-10 4.477-10 10v92.42h-34.128v-69.208c0-5.523-4.477-10-10-10h-93.678c-5.523 0-10 4.477-10 10v69.208h-34.128v-197.493l181.934-80.813v95.474c0 5.523 4.477 10 10 10s10-4.477 10-10v-226.047l221.829 82.279z"/><g><path d="m236.05 305.811c-4.169 0-8.009-2.703-9.405-6.632-1.395-3.926-.178-8.449 3.061-11.096 3.284-2.683 8.018-2.987 11.62-.758 3.575 2.212 5.403 6.568 4.479 10.669-1.013 4.506-5.128 7.817-9.755 7.817z"/></g><path d="m181.924 325.47h-93.675c-5.523 0-10-4.477-10-10v-55.483c0-4.024 2.412-7.656 6.122-9.217l62.36-26.241c1.228-.517 2.546-.783 3.878-.783h31.314c5.523 0 10 4.477 10 10v81.724c.001 5.523-4.476 10-9.999 10zm-83.675-20h73.674v-61.724h-19.296l-54.378 22.882z"/><path d="m436.008 217.455h-55.076c-5.523 0-10-4.477-10-10v-68.399c0-3.273 1.602-6.34 4.29-8.209 2.687-1.87 6.119-2.306 9.189-1.167l55.076 20.431c3.921 1.454 6.522 5.194 6.522 9.376v47.968c-.001 5.523-4.478 10-10.001 10zm-45.076-20h35.076v-31.012l-35.076-13.012z"/><path d="m333.011 217.455h-55.085c-5.523 0-10-4.477-10-10v-103.102c0-5.523 4.477-10 10-10h9.446c1.187 0 2.364.211 3.477.624l45.639 16.923c3.921 1.454 6.523 5.194 6.523 9.376v86.179c0 5.523-4.477 10-10 10zm-45.085-20h35.085v-69.222l-35.085-13.01z"/><path d="m436.01 346.838h-55.083c-5.523 0-10-4.477-10-10v-83.161c0-5.523 4.477-10 10-10h55.083c5.523 0 10 4.477 10 10v83.161c0 5.523-4.477 10-10 10zm-45.082-20h35.083v-63.161h-35.083z"/><path d="m333.007 346.838h-55.082c-5.523 0-10-4.477-10-10v-83.161c0-5.523 4.477-10 10-10h55.082c5.523 0 10 4.477 10 10v83.161c0 5.523-4.477 10-10 10zm-45.083-20h35.082v-63.161h-35.082z"/></g></g></svg>