<svg id="Capa_1" enable-background="new 0 0 512 512" height="512" viewBox="0 0 512 512" width="512" xmlns="http://www.w3.org/2000/svg"><path d="m69.55 386h-33.55c-5.523 0-10 4.477-10 10v66c0 5.523 4.477 10 10 10h20v30c0 5.523 4.477 10 10 10h410c5.522 0 10-4.477 10-10v-492c0-5.523-4.478-10-10-10h-115c-5.522 0-10 4.477-10 10s4.478 10 10 10h105v472h-230v-20h20c5.522 0 10-4.477 10-10v-66c0-5.523-4.478-10-10-10h-37.5c-15.839 0-24.276-15.587-27.168-22.288-9.121-21.134-6.668-46.968 5.701-60.089 12.231-12.961 18.967-29.874 18.967-47.623 0-35.202-26.123-64.406-60-69.274v-166.726h115c5.522 0 10-4.477 10-10s-4.478-10-10-10h-125c-5.523 0-10 4.477-10 10v176.722c-29.906 4.17-52.579 27.043-58.358 53.972-4.896 22.837 1.268 45.615 16.915 62.496 14.514 15.655 13.511 39.84 6.079 56.864-5.476 12.543-16.518 25.946-31.086 25.946zm146.45 106h-140v-20h140zm30-40h-200v-46h200zm-148.803-207.112c4.411-20.555 23.557-38.888 48.803-38.888 27.57 0 50 22.43 50 50 0 12.625-4.799 24.663-13.517 33.9-20.171 21.396-20.055 57.314-9.515 81.737 2.316 5.367 5.068 10.169 8.188 14.363h-73.073c4.237-5.15 7.926-11.174 10.882-17.945 12.252-28.065 8.428-58.864-9.741-78.462-11.154-12.035-15.538-28.33-12.027-44.705z"/><path d="m356 312c-38.598 0-70 31.402-70 70s31.402 70 70 70 70-31.402 70-70-31.402-70-70-70zm0 120c-27.57 0-50-22.43-50-50s22.43-50 50-50 50 22.43 50 50-22.43 50-50 50z"/><path d="m296 66h-90c-5.523 0-10 4.477-10 10s4.477 10 10 10h90c5.522 0 10-4.477 10-10s-4.478-10-10-10z"/><path d="m196 136c0 5.523 4.477 10 10 10h210c5.522 0 10-4.477 10-10s-4.478-10-10-10h-210c-5.523 0-10 4.477-10 10z"/><path d="m416 186h-150c-5.522 0-10 4.477-10 10s4.478 10 10 10h150c5.522 0 10-4.477 10-10s-4.478-10-10-10z"/><path d="m416 246h-150c-5.522 0-10 4.477-10 10s4.478 10 10 10h150c5.522 0 10-4.477 10-10s-4.478-10-10-10z"/><circle cx="316" cy="10" r="10"/></svg>