<svg width="9" height="14" viewBox="0 0 9 14" fill="none" xmlns="http://www.w3.org/2000/svg">
<path d="M5.002 12.29L7.647 9.646C7.7413 9.55492 7.8676 9.50452 7.9987 9.50566C8.1298 9.5068 8.2552 9.55939 8.34791 9.65209C8.44061 9.7448 8.4932 9.8702 8.49434 10.0013C8.49547 10.1324 8.44508 10.2587 8.354 10.353L4.886 13.82C4.839 13.8761 4.78025 13.9213 4.71389 13.9522C4.64754 13.9831 4.57521 13.9991 4.502 13.999H4.501C4.43522 13.999 4.3701 13.986 4.30935 13.9608C4.24861 13.9355 4.19344 13.8986 4.147 13.852L4.137 13.842L0.646998 10.352C0.599243 10.3059 0.561152 10.2507 0.534948 10.1897C0.508743 10.1287 0.49495 10.0631 0.494373 9.9967C0.493796 9.93031 0.506447 9.86447 0.531587 9.80302C0.556728 9.74158 0.593854 9.68575 0.640801 9.6388C0.687747 9.59186 0.743573 9.55473 0.805022 9.52959C0.86647 9.50445 0.932309 9.4918 0.998699 9.49237C1.06509 9.49295 1.1307 9.50674 1.1917 9.53295C1.2527 9.55915 1.30788 9.59725 1.354 9.645L4.002 12.294V0.5C4.002 0.367392 4.05468 0.240215 4.14845 0.146447C4.24221 0.0526785 4.36939 0 4.502 0C4.63461 0 4.76178 0.0526785 4.85555 0.146447C4.94932 0.240215 5.002 0.367392 5.002 0.5V12.29Z" fill="black"/>
</svg>
